<?xml version="1.0" encoding="utf-8" standalone="no"?>
<!DOCTYPE svg PUBLIC "-//W3C//DTD SVG 1.1//EN"
  "http://www.w3.org/Graphics/SVG/1.1/DTD/svg11.dtd">
<!-- Created with matplotlib (http://matplotlib.org/) -->
<svg height="345.6pt" version="1.1" viewBox="0 0 460.8 345.6" width="460.8pt" xmlns="http://www.w3.org/2000/svg" xmlns:xlink="http://www.w3.org/1999/xlink">
 <defs>
  <style type="text/css">
*{stroke-linecap:butt;stroke-linejoin:round;}
  </style>
 </defs>
 <g id="figure_1">
  <g id="patch_1">
   <path d="M 0 345.6 
L 460.8 345.6 
L 460.8 0 
L 0 0 
z
" style="fill:#ffffff;"/>
  </g>
  <g id="axes_1">
   <g id="patch_2">
    <path d="M 57.6 276.48 
L 414.72 276.48 
L 414.72 41.472 
L 57.6 41.472 
z
" style="fill:#ffffff;"/>
   </g>
   <g id="patch_3">
    <path clip-path="url(#p020e728336)" d="M 247.613389 276.48 
L 247.613389 41.472 
L 795.840249 41.472 
L 795.840249 276.48 
z
" style="fill:#808080;opacity:0.2;stroke:#808080;stroke-linejoin:miter;"/>
   </g>
   <g id="patch_4">
    <path clip-path="url(#p020e728336)" d="M 247.613389 276.48 
L 247.613389 41.472 
L 795.840249 41.472 
L 795.840249 276.48 
z
" style="fill:#808080;opacity:0.2;stroke:#808080;stroke-linejoin:miter;"/>
   </g>
   <g id="matplotlib.axis_1">
    <g id="xtick_1">
     <g id="line2d_1">
      <path clip-path="url(#p020e728336)" d="M 70.833902 276.48 
L 70.833902 41.472 
" style="fill:none;stroke:#b0b0b0;stroke-linecap:square;stroke-width:0.8;"/>
     </g>
     <g id="line2d_2">
      <defs>
       <path d="M 0 0 
L 0 3.5 
" id="mafd42d351d" style="stroke:#000000;stroke-width:0.8;"/>
      </defs>
      <g>
       <use style="stroke:#000000;stroke-width:0.8;" x="70.833902" xlink:href="#mafd42d351d" y="276.48"/>
      </g>
     </g>
     <g id="text_1">
      <!-- 07-28 14 -->
      <defs>
       <path d="M 31.78125 66.40625 
Q 24.171875 66.40625 20.328125 58.90625 
Q 16.5 51.421875 16.5 36.375 
Q 16.5 21.390625 20.328125 13.890625 
Q 24.171875 6.390625 31.78125 6.390625 
Q 39.453125 6.390625 43.28125 13.890625 
Q 47.125 21.390625 47.125 36.375 
Q 47.125 51.421875 43.28125 58.90625 
Q 39.453125 66.40625 31.78125 66.40625 
z
M 31.78125 74.21875 
Q 44.046875 74.21875 50.515625 64.515625 
Q 56.984375 54.828125 56.984375 36.375 
Q 56.984375 17.96875 50.515625 8.265625 
Q 44.046875 -1.421875 31.78125 -1.421875 
Q 19.53125 -1.421875 13.0625 8.265625 
Q 6.59375 17.96875 6.59375 36.375 
Q 6.59375 54.828125 13.0625 64.515625 
Q 19.53125 74.21875 31.78125 74.21875 
z
" id="DejaVuSans-30"/>
       <path d="M 8.203125 72.90625 
L 55.078125 72.90625 
L 55.078125 68.703125 
L 28.609375 0 
L 18.3125 0 
L 43.21875 64.59375 
L 8.203125 64.59375 
z
" id="DejaVuSans-37"/>
       <path d="M 4.890625 31.390625 
L 31.203125 31.390625 
L 31.203125 23.390625 
L 4.890625 23.390625 
z
" id="DejaVuSans-2d"/>
       <path d="M 19.1875 8.296875 
L 53.609375 8.296875 
L 53.609375 0 
L 7.328125 0 
L 7.328125 8.296875 
Q 12.9375 14.109375 22.625 23.890625 
Q 32.328125 33.6875 34.8125 36.53125 
Q 39.546875 41.84375 41.421875 45.53125 
Q 43.3125 49.21875 43.3125 52.78125 
Q 43.3125 58.59375 39.234375 62.25 
Q 35.15625 65.921875 28.609375 65.921875 
Q 23.96875 65.921875 18.8125 64.3125 
Q 13.671875 62.703125 7.8125 59.421875 
L 7.8125 69.390625 
Q 13.765625 71.78125 18.9375 73 
Q 24.125 74.21875 28.421875 74.21875 
Q 39.75 74.21875 46.484375 68.546875 
Q 53.21875 62.890625 53.21875 53.421875 
Q 53.21875 48.921875 51.53125 44.890625 
Q 49.859375 40.875 45.40625 35.40625 
Q 44.1875 33.984375 37.640625 27.21875 
Q 31.109375 20.453125 19.1875 8.296875 
z
" id="DejaVuSans-32"/>
       <path d="M 31.78125 34.625 
Q 24.75 34.625 20.71875 30.859375 
Q 16.703125 27.09375 16.703125 20.515625 
Q 16.703125 13.921875 20.71875 10.15625 
Q 24.75 6.390625 31.78125 6.390625 
Q 38.8125 6.390625 42.859375 10.171875 
Q 46.921875 13.96875 46.921875 20.515625 
Q 46.921875 27.09375 42.890625 30.859375 
Q 38.875 34.625 31.78125 34.625 
z
M 21.921875 38.8125 
Q 15.578125 40.375 12.03125 44.71875 
Q 8.5 49.078125 8.5 55.328125 
Q 8.5 64.0625 14.71875 69.140625 
Q 20.953125 74.21875 31.78125 74.21875 
Q 42.671875 74.21875 48.875 69.140625 
Q 55.078125 64.0625 55.078125 55.328125 
Q 55.078125 49.078125 51.53125 44.71875 
Q 48 40.375 41.703125 38.8125 
Q 48.828125 37.15625 52.796875 32.3125 
Q 56.78125 27.484375 56.78125 20.515625 
Q 56.78125 9.90625 50.3125 4.234375 
Q 43.84375 -1.421875 31.78125 -1.421875 
Q 19.734375 -1.421875 13.25 4.234375 
Q 6.78125 9.90625 6.78125 20.515625 
Q 6.78125 27.484375 10.78125 32.3125 
Q 14.796875 37.15625 21.921875 38.8125 
z
M 18.3125 54.390625 
Q 18.3125 48.734375 21.84375 45.5625 
Q 25.390625 42.390625 31.78125 42.390625 
Q 38.140625 42.390625 41.71875 45.5625 
Q 45.3125 48.734375 45.3125 54.390625 
Q 45.3125 60.0625 41.71875 63.234375 
Q 38.140625 66.40625 31.78125 66.40625 
Q 25.390625 66.40625 21.84375 63.234375 
Q 18.3125 60.0625 18.3125 54.390625 
z
" id="DejaVuSans-38"/>
       <path id="DejaVuSans-20"/>
       <path d="M 12.40625 8.296875 
L 28.515625 8.296875 
L 28.515625 63.921875 
L 10.984375 60.40625 
L 10.984375 69.390625 
L 28.421875 72.90625 
L 38.28125 72.90625 
L 38.28125 8.296875 
L 54.390625 8.296875 
L 54.390625 0 
L 12.40625 0 
z
" id="DejaVuSans-31"/>
       <path d="M 37.796875 64.3125 
L 12.890625 25.390625 
L 37.796875 25.390625 
z
M 35.203125 72.90625 
L 47.609375 72.90625 
L 47.609375 25.390625 
L 58.015625 25.390625 
L 58.015625 17.1875 
L 47.609375 17.1875 
L 47.609375 0 
L 37.796875 0 
L 37.796875 17.1875 
L 4.890625 17.1875 
L 4.890625 26.703125 
z
" id="DejaVuSans-34"/>
      </defs>
      <g transform="translate(30.856744 312.540909)rotate(-30)scale(0.1 -0.1)">
       <use xlink:href="#DejaVuSans-30"/>
       <use x="63.623047" xlink:href="#DejaVuSans-37"/>
       <use x="127.246094" xlink:href="#DejaVuSans-2d"/>
       <use x="163.330078" xlink:href="#DejaVuSans-32"/>
       <use x="226.953125" xlink:href="#DejaVuSans-38"/>
       <use x="290.576172" xlink:href="#DejaVuSans-20"/>
       <use x="322.363281" xlink:href="#DejaVuSans-31"/>
       <use x="385.986328" xlink:href="#DejaVuSans-34"/>
      </g>
     </g>
    </g>
    <g id="xtick_2">
     <g id="line2d_3">
      <path clip-path="url(#p020e728336)" d="M 108.715221 276.48 
L 108.715221 41.472 
" style="fill:none;stroke:#b0b0b0;stroke-linecap:square;stroke-width:0.8;"/>
     </g>
     <g id="line2d_4">
      <g>
       <use style="stroke:#000000;stroke-width:0.8;" x="108.715221" xlink:href="#mafd42d351d" y="276.48"/>
      </g>
     </g>
     <g id="text_2">
      <!-- 07-28 17 -->
      <g transform="translate(68.738063 312.540909)rotate(-30)scale(0.1 -0.1)">
       <use xlink:href="#DejaVuSans-30"/>
       <use x="63.623047" xlink:href="#DejaVuSans-37"/>
       <use x="127.246094" xlink:href="#DejaVuSans-2d"/>
       <use x="163.330078" xlink:href="#DejaVuSans-32"/>
       <use x="226.953125" xlink:href="#DejaVuSans-38"/>
       <use x="290.576172" xlink:href="#DejaVuSans-20"/>
       <use x="322.363281" xlink:href="#DejaVuSans-31"/>
       <use x="385.986328" xlink:href="#DejaVuSans-37"/>
      </g>
     </g>
    </g>
    <g id="xtick_3">
     <g id="line2d_5">
      <path clip-path="url(#p020e728336)" d="M 146.596539 276.48 
L 146.596539 41.472 
" style="fill:none;stroke:#b0b0b0;stroke-linecap:square;stroke-width:0.8;"/>
     </g>
     <g id="line2d_6">
      <g>
       <use style="stroke:#000000;stroke-width:0.8;" x="146.596539" xlink:href="#mafd42d351d" y="276.48"/>
      </g>
     </g>
     <g id="text_3">
      <!-- 07-28 20 -->
      <g transform="translate(106.619382 312.540909)rotate(-30)scale(0.1 -0.1)">
       <use xlink:href="#DejaVuSans-30"/>
       <use x="63.623047" xlink:href="#DejaVuSans-37"/>
       <use x="127.246094" xlink:href="#DejaVuSans-2d"/>
       <use x="163.330078" xlink:href="#DejaVuSans-32"/>
       <use x="226.953125" xlink:href="#DejaVuSans-38"/>
       <use x="290.576172" xlink:href="#DejaVuSans-20"/>
       <use x="322.363281" xlink:href="#DejaVuSans-32"/>
       <use x="385.986328" xlink:href="#DejaVuSans-30"/>
      </g>
     </g>
    </g>
    <g id="xtick_4">
     <g id="line2d_7">
      <path clip-path="url(#p020e728336)" d="M 184.477858 276.48 
L 184.477858 41.472 
" style="fill:none;stroke:#b0b0b0;stroke-linecap:square;stroke-width:0.8;"/>
     </g>
     <g id="line2d_8">
      <g>
       <use style="stroke:#000000;stroke-width:0.8;" x="184.477858" xlink:href="#mafd42d351d" y="276.48"/>
      </g>
     </g>
     <g id="text_4">
      <!-- 07-28 23 -->
      <defs>
       <path d="M 40.578125 39.3125 
Q 47.65625 37.796875 51.625 33 
Q 55.609375 28.21875 55.609375 21.1875 
Q 55.609375 10.40625 48.1875 4.484375 
Q 40.765625 -1.421875 27.09375 -1.421875 
Q 22.515625 -1.421875 17.65625 -0.515625 
Q 12.796875 0.390625 7.625 2.203125 
L 7.625 11.71875 
Q 11.71875 9.328125 16.59375 8.109375 
Q 21.484375 6.890625 26.8125 6.890625 
Q 36.078125 6.890625 40.9375 10.546875 
Q 45.796875 14.203125 45.796875 21.1875 
Q 45.796875 27.640625 41.28125 31.265625 
Q 36.765625 34.90625 28.71875 34.90625 
L 20.21875 34.90625 
L 20.21875 43.015625 
L 29.109375 43.015625 
Q 36.375 43.015625 40.234375 45.921875 
Q 44.09375 48.828125 44.09375 54.296875 
Q 44.09375 59.90625 40.109375 62.90625 
Q 36.140625 65.921875 28.71875 65.921875 
Q 24.65625 65.921875 20.015625 65.03125 
Q 15.375 64.15625 9.8125 62.3125 
L 9.8125 71.09375 
Q 15.4375 72.65625 20.34375 73.4375 
Q 25.25 74.21875 29.59375 74.21875 
Q 40.828125 74.21875 47.359375 69.109375 
Q 53.90625 64.015625 53.90625 55.328125 
Q 53.90625 49.265625 50.4375 45.09375 
Q 46.96875 40.921875 40.578125 39.3125 
z
" id="DejaVuSans-33"/>
      </defs>
      <g transform="translate(144.5007 312.540909)rotate(-30)scale(0.1 -0.1)">
       <use xlink:href="#DejaVuSans-30"/>
       <use x="63.623047" xlink:href="#DejaVuSans-37"/>
       <use x="127.246094" xlink:href="#DejaVuSans-2d"/>
       <use x="163.330078" xlink:href="#DejaVuSans-32"/>
       <use x="226.953125" xlink:href="#DejaVuSans-38"/>
       <use x="290.576172" xlink:href="#DejaVuSans-20"/>
       <use x="322.363281" xlink:href="#DejaVuSans-32"/>
       <use x="385.986328" xlink:href="#DejaVuSans-33"/>
      </g>
     </g>
    </g>
    <g id="xtick_5">
     <g id="line2d_9">
      <path clip-path="url(#p020e728336)" d="M 222.359176 276.48 
L 222.359176 41.472 
" style="fill:none;stroke:#b0b0b0;stroke-linecap:square;stroke-width:0.8;"/>
     </g>
     <g id="line2d_10">
      <g>
       <use style="stroke:#000000;stroke-width:0.8;" x="222.359176" xlink:href="#mafd42d351d" y="276.48"/>
      </g>
     </g>
     <g id="text_5">
      <!-- 07-29 02 -->
      <defs>
       <path d="M 10.984375 1.515625 
L 10.984375 10.5 
Q 14.703125 8.734375 18.5 7.8125 
Q 22.3125 6.890625 25.984375 6.890625 
Q 35.75 6.890625 40.890625 13.453125 
Q 46.046875 20.015625 46.78125 33.40625 
Q 43.953125 29.203125 39.59375 26.953125 
Q 35.25 24.703125 29.984375 24.703125 
Q 19.046875 24.703125 12.671875 31.3125 
Q 6.296875 37.9375 6.296875 49.421875 
Q 6.296875 60.640625 12.9375 67.421875 
Q 19.578125 74.21875 30.609375 74.21875 
Q 43.265625 74.21875 49.921875 64.515625 
Q 56.59375 54.828125 56.59375 36.375 
Q 56.59375 19.140625 48.40625 8.859375 
Q 40.234375 -1.421875 26.421875 -1.421875 
Q 22.703125 -1.421875 18.890625 -0.6875 
Q 15.09375 0.046875 10.984375 1.515625 
z
M 30.609375 32.421875 
Q 37.25 32.421875 41.125 36.953125 
Q 45.015625 41.5 45.015625 49.421875 
Q 45.015625 57.28125 41.125 61.84375 
Q 37.25 66.40625 30.609375 66.40625 
Q 23.96875 66.40625 20.09375 61.84375 
Q 16.21875 57.28125 16.21875 49.421875 
Q 16.21875 41.5 20.09375 36.953125 
Q 23.96875 32.421875 30.609375 32.421875 
z
" id="DejaVuSans-39"/>
      </defs>
      <g transform="translate(182.382019 312.540909)rotate(-30)scale(0.1 -0.1)">
       <use xlink:href="#DejaVuSans-30"/>
       <use x="63.623047" xlink:href="#DejaVuSans-37"/>
       <use x="127.246094" xlink:href="#DejaVuSans-2d"/>
       <use x="163.330078" xlink:href="#DejaVuSans-32"/>
       <use x="226.953125" xlink:href="#DejaVuSans-39"/>
       <use x="290.576172" xlink:href="#DejaVuSans-20"/>
       <use x="322.363281" xlink:href="#DejaVuSans-30"/>
       <use x="385.986328" xlink:href="#DejaVuSans-32"/>
      </g>
     </g>
    </g>
    <g id="xtick_6">
     <g id="line2d_11">
      <path clip-path="url(#p020e728336)" d="M 260.240495 276.48 
L 260.240495 41.472 
" style="fill:none;stroke:#b0b0b0;stroke-linecap:square;stroke-width:0.8;"/>
     </g>
     <g id="line2d_12">
      <g>
       <use style="stroke:#000000;stroke-width:0.8;" x="260.240495" xlink:href="#mafd42d351d" y="276.48"/>
      </g>
     </g>
     <g id="text_6">
      <!-- 07-29 05 -->
      <defs>
       <path d="M 10.796875 72.90625 
L 49.515625 72.90625 
L 49.515625 64.59375 
L 19.828125 64.59375 
L 19.828125 46.734375 
Q 21.96875 47.46875 24.109375 47.828125 
Q 26.265625 48.1875 28.421875 48.1875 
Q 40.625 48.1875 47.75 41.5 
Q 54.890625 34.8125 54.890625 23.390625 
Q 54.890625 11.625 47.5625 5.09375 
Q 40.234375 -1.421875 26.90625 -1.421875 
Q 22.3125 -1.421875 17.546875 -0.640625 
Q 12.796875 0.140625 7.71875 1.703125 
L 7.71875 11.625 
Q 12.109375 9.234375 16.796875 8.0625 
Q 21.484375 6.890625 26.703125 6.890625 
Q 35.15625 6.890625 40.078125 11.328125 
Q 45.015625 15.765625 45.015625 23.390625 
Q 45.015625 31 40.078125 35.4375 
Q 35.15625 39.890625 26.703125 39.890625 
Q 22.75 39.890625 18.8125 39.015625 
Q 14.890625 38.140625 10.796875 36.28125 
z
" id="DejaVuSans-35"/>
      </defs>
      <g transform="translate(220.263337 312.540909)rotate(-30)scale(0.1 -0.1)">
       <use xlink:href="#DejaVuSans-30"/>
       <use x="63.623047" xlink:href="#DejaVuSans-37"/>
       <use x="127.246094" xlink:href="#DejaVuSans-2d"/>
       <use x="163.330078" xlink:href="#DejaVuSans-32"/>
       <use x="226.953125" xlink:href="#DejaVuSans-39"/>
       <use x="290.576172" xlink:href="#DejaVuSans-20"/>
       <use x="322.363281" xlink:href="#DejaVuSans-30"/>
       <use x="385.986328" xlink:href="#DejaVuSans-35"/>
      </g>
     </g>
    </g>
    <g id="xtick_7">
     <g id="line2d_13">
      <path clip-path="url(#p020e728336)" d="M 298.121814 276.48 
L 298.121814 41.472 
" style="fill:none;stroke:#b0b0b0;stroke-linecap:square;stroke-width:0.8;"/>
     </g>
     <g id="line2d_14">
      <g>
       <use style="stroke:#000000;stroke-width:0.8;" x="298.121814" xlink:href="#mafd42d351d" y="276.48"/>
      </g>
     </g>
     <g id="text_7">
      <!-- 07-29 08 -->
      <g transform="translate(258.144656 312.540909)rotate(-30)scale(0.1 -0.1)">
       <use xlink:href="#DejaVuSans-30"/>
       <use x="63.623047" xlink:href="#DejaVuSans-37"/>
       <use x="127.246094" xlink:href="#DejaVuSans-2d"/>
       <use x="163.330078" xlink:href="#DejaVuSans-32"/>
       <use x="226.953125" xlink:href="#DejaVuSans-39"/>
       <use x="290.576172" xlink:href="#DejaVuSans-20"/>
       <use x="322.363281" xlink:href="#DejaVuSans-30"/>
       <use x="385.986328" xlink:href="#DejaVuSans-38"/>
      </g>
     </g>
    </g>
    <g id="xtick_8">
     <g id="line2d_15">
      <path clip-path="url(#p020e728336)" d="M 336.003132 276.48 
L 336.003132 41.472 
" style="fill:none;stroke:#b0b0b0;stroke-linecap:square;stroke-width:0.8;"/>
     </g>
     <g id="line2d_16">
      <g>
       <use style="stroke:#000000;stroke-width:0.8;" x="336.003132" xlink:href="#mafd42d351d" y="276.48"/>
      </g>
     </g>
     <g id="text_8">
      <!-- 07-29 11 -->
      <g transform="translate(296.025974 312.540909)rotate(-30)scale(0.1 -0.1)">
       <use xlink:href="#DejaVuSans-30"/>
       <use x="63.623047" xlink:href="#DejaVuSans-37"/>
       <use x="127.246094" xlink:href="#DejaVuSans-2d"/>
       <use x="163.330078" xlink:href="#DejaVuSans-32"/>
       <use x="226.953125" xlink:href="#DejaVuSans-39"/>
       <use x="290.576172" xlink:href="#DejaVuSans-20"/>
       <use x="322.363281" xlink:href="#DejaVuSans-31"/>
       <use x="385.986328" xlink:href="#DejaVuSans-31"/>
      </g>
     </g>
    </g>
    <g id="xtick_9">
     <g id="line2d_17">
      <path clip-path="url(#p020e728336)" d="M 373.884451 276.48 
L 373.884451 41.472 
" style="fill:none;stroke:#b0b0b0;stroke-linecap:square;stroke-width:0.8;"/>
     </g>
     <g id="line2d_18">
      <g>
       <use style="stroke:#000000;stroke-width:0.8;" x="373.884451" xlink:href="#mafd42d351d" y="276.48"/>
      </g>
     </g>
     <g id="text_9">
      <!-- 07-29 14 -->
      <g transform="translate(333.907293 312.540909)rotate(-30)scale(0.1 -0.1)">
       <use xlink:href="#DejaVuSans-30"/>
       <use x="63.623047" xlink:href="#DejaVuSans-37"/>
       <use x="127.246094" xlink:href="#DejaVuSans-2d"/>
       <use x="163.330078" xlink:href="#DejaVuSans-32"/>
       <use x="226.953125" xlink:href="#DejaVuSans-39"/>
       <use x="290.576172" xlink:href="#DejaVuSans-20"/>
       <use x="322.363281" xlink:href="#DejaVuSans-31"/>
       <use x="385.986328" xlink:href="#DejaVuSans-34"/>
      </g>
     </g>
    </g>
    <g id="xtick_10">
     <g id="line2d_19">
      <path clip-path="url(#p020e728336)" d="M 411.765769 276.48 
L 411.765769 41.472 
" style="fill:none;stroke:#b0b0b0;stroke-linecap:square;stroke-width:0.8;"/>
     </g>
     <g id="line2d_20">
      <g>
       <use style="stroke:#000000;stroke-width:0.8;" x="411.765769" xlink:href="#mafd42d351d" y="276.48"/>
      </g>
     </g>
     <g id="text_10">
      <!-- 07-29 17 -->
      <g transform="translate(371.788611 312.540909)rotate(-30)scale(0.1 -0.1)">
       <use xlink:href="#DejaVuSans-30"/>
       <use x="63.623047" xlink:href="#DejaVuSans-37"/>
       <use x="127.246094" xlink:href="#DejaVuSans-2d"/>
       <use x="163.330078" xlink:href="#DejaVuSans-32"/>
       <use x="226.953125" xlink:href="#DejaVuSans-39"/>
       <use x="290.576172" xlink:href="#DejaVuSans-20"/>
       <use x="322.363281" xlink:href="#DejaVuSans-31"/>
       <use x="385.986328" xlink:href="#DejaVuSans-37"/>
      </g>
     </g>
    </g>
    <g id="text_11">
     <!-- Date -->
     <defs>
      <path d="M 19.671875 64.796875 
L 19.671875 8.109375 
L 31.59375 8.109375 
Q 46.6875 8.109375 53.6875 14.9375 
Q 60.6875 21.78125 60.6875 36.53125 
Q 60.6875 51.171875 53.6875 57.984375 
Q 46.6875 64.796875 31.59375 64.796875 
z
M 9.8125 72.90625 
L 30.078125 72.90625 
Q 51.265625 72.90625 61.171875 64.09375 
Q 71.09375 55.28125 71.09375 36.53125 
Q 71.09375 17.671875 61.125 8.828125 
Q 51.171875 0 30.078125 0 
L 9.8125 0 
z
" id="DejaVuSans-44"/>
      <path d="M 34.28125 27.484375 
Q 23.390625 27.484375 19.1875 25 
Q 14.984375 22.515625 14.984375 16.5 
Q 14.984375 11.71875 18.140625 8.90625 
Q 21.296875 6.109375 26.703125 6.109375 
Q 34.1875 6.109375 38.703125 11.40625 
Q 43.21875 16.703125 43.21875 25.484375 
L 43.21875 27.484375 
z
M 52.203125 31.203125 
L 52.203125 0 
L 43.21875 0 
L 43.21875 8.296875 
Q 40.140625 3.328125 35.546875 0.953125 
Q 30.953125 -1.421875 24.3125 -1.421875 
Q 15.921875 -1.421875 10.953125 3.296875 
Q 6 8.015625 6 15.921875 
Q 6 25.140625 12.171875 29.828125 
Q 18.359375 34.515625 30.609375 34.515625 
L 43.21875 34.515625 
L 43.21875 35.40625 
Q 43.21875 41.609375 39.140625 45 
Q 35.0625 48.390625 27.6875 48.390625 
Q 23 48.390625 18.546875 47.265625 
Q 14.109375 46.140625 10.015625 43.890625 
L 10.015625 52.203125 
Q 14.9375 54.109375 19.578125 55.046875 
Q 24.21875 56 28.609375 56 
Q 40.484375 56 46.34375 49.84375 
Q 52.203125 43.703125 52.203125 31.203125 
z
" id="DejaVuSans-61"/>
      <path d="M 18.3125 70.21875 
L 18.3125 54.6875 
L 36.8125 54.6875 
L 36.8125 47.703125 
L 18.3125 47.703125 
L 18.3125 18.015625 
Q 18.3125 11.328125 20.140625 9.421875 
Q 21.96875 7.515625 27.59375 7.515625 
L 36.8125 7.515625 
L 36.8125 0 
L 27.59375 0 
Q 17.1875 0 13.234375 3.875 
Q 9.28125 7.765625 9.28125 18.015625 
L 9.28125 47.703125 
L 2.6875 47.703125 
L 2.6875 54.6875 
L 9.28125 54.6875 
L 9.28125 70.21875 
z
" id="DejaVuSans-74"/>
      <path d="M 56.203125 29.59375 
L 56.203125 25.203125 
L 14.890625 25.203125 
Q 15.484375 15.921875 20.484375 11.0625 
Q 25.484375 6.203125 34.421875 6.203125 
Q 39.59375 6.203125 44.453125 7.46875 
Q 49.3125 8.734375 54.109375 11.28125 
L 54.109375 2.78125 
Q 49.265625 0.734375 44.1875 -0.34375 
Q 39.109375 -1.421875 33.890625 -1.421875 
Q 20.796875 -1.421875 13.15625 6.1875 
Q 5.515625 13.8125 5.515625 26.8125 
Q 5.515625 40.234375 12.765625 48.109375 
Q 20.015625 56 32.328125 56 
Q 43.359375 56 49.78125 48.890625 
Q 56.203125 41.796875 56.203125 29.59375 
z
M 47.21875 32.234375 
Q 47.125 39.59375 43.09375 43.984375 
Q 39.0625 48.390625 32.421875 48.390625 
Q 24.90625 48.390625 20.390625 44.140625 
Q 15.875 39.890625 15.1875 32.171875 
z
" id="DejaVuSans-65"/>
     </defs>
     <g transform="translate(224.209219 325.940408)scale(0.1 -0.1)">
      <use xlink:href="#DejaVuSans-44"/>
      <use x="77.001953" xlink:href="#DejaVuSans-61"/>
      <use x="138.28125" xlink:href="#DejaVuSans-74"/>
      <use x="177.490234" xlink:href="#DejaVuSans-65"/>
     </g>
    </g>
   </g>
   <g id="matplotlib.axis_2">
    <g id="ytick_1">
     <g id="line2d_21">
      <path clip-path="url(#p020e728336)" d="M 57.6 253.426961 
L 414.72 253.426961 
" style="fill:none;stroke:#b0b0b0;stroke-linecap:square;stroke-width:0.8;"/>
     </g>
     <g id="line2d_22">
      <defs>
       <path d="M 0 0 
L -3.5 0 
" id="mcc3ee298e1" style="stroke:#000000;stroke-width:0.8;"/>
      </defs>
      <g>
       <use style="stroke:#000000;stroke-width:0.8;" x="57.6" xlink:href="#mcc3ee298e1" y="253.426961"/>
      </g>
     </g>
     <g id="text_12">
      <!-- 0.0 -->
      <defs>
       <path d="M 10.6875 12.40625 
L 21 12.40625 
L 21 0 
L 10.6875 0 
z
" id="DejaVuSans-2e"/>
      </defs>
      <g transform="translate(34.696875 257.22618)scale(0.1 -0.1)">
       <use xlink:href="#DejaVuSans-30"/>
       <use x="63.623047" xlink:href="#DejaVuSans-2e"/>
       <use x="95.410156" xlink:href="#DejaVuSans-30"/>
      </g>
     </g>
    </g>
    <g id="ytick_2">
     <g id="line2d_23">
      <path clip-path="url(#p020e728336)" d="M 57.6 221.939125 
L 414.72 221.939125 
" style="fill:none;stroke:#b0b0b0;stroke-linecap:square;stroke-width:0.8;"/>
     </g>
     <g id="line2d_24">
      <g>
       <use style="stroke:#000000;stroke-width:0.8;" x="57.6" xlink:href="#mcc3ee298e1" y="221.939125"/>
      </g>
     </g>
     <g id="text_13">
      <!-- 0.2 -->
      <g transform="translate(34.696875 225.738344)scale(0.1 -0.1)">
       <use xlink:href="#DejaVuSans-30"/>
       <use x="63.623047" xlink:href="#DejaVuSans-2e"/>
       <use x="95.410156" xlink:href="#DejaVuSans-32"/>
      </g>
     </g>
    </g>
    <g id="ytick_3">
     <g id="line2d_25">
      <path clip-path="url(#p020e728336)" d="M 57.6 190.451289 
L 414.72 190.451289 
" style="fill:none;stroke:#b0b0b0;stroke-linecap:square;stroke-width:0.8;"/>
     </g>
     <g id="line2d_26">
      <g>
       <use style="stroke:#000000;stroke-width:0.8;" x="57.6" xlink:href="#mcc3ee298e1" y="190.451289"/>
      </g>
     </g>
     <g id="text_14">
      <!-- 0.4 -->
      <g transform="translate(34.696875 194.250508)scale(0.1 -0.1)">
       <use xlink:href="#DejaVuSans-30"/>
       <use x="63.623047" xlink:href="#DejaVuSans-2e"/>
       <use x="95.410156" xlink:href="#DejaVuSans-34"/>
      </g>
     </g>
    </g>
    <g id="ytick_4">
     <g id="line2d_27">
      <path clip-path="url(#p020e728336)" d="M 57.6 158.963453 
L 414.72 158.963453 
" style="fill:none;stroke:#b0b0b0;stroke-linecap:square;stroke-width:0.8;"/>
     </g>
     <g id="line2d_28">
      <g>
       <use style="stroke:#000000;stroke-width:0.8;" x="57.6" xlink:href="#mcc3ee298e1" y="158.963453"/>
      </g>
     </g>
     <g id="text_15">
      <!-- 0.6 -->
      <defs>
       <path d="M 33.015625 40.375 
Q 26.375 40.375 22.484375 35.828125 
Q 18.609375 31.296875 18.609375 23.390625 
Q 18.609375 15.53125 22.484375 10.953125 
Q 26.375 6.390625 33.015625 6.390625 
Q 39.65625 6.390625 43.53125 10.953125 
Q 47.40625 15.53125 47.40625 23.390625 
Q 47.40625 31.296875 43.53125 35.828125 
Q 39.65625 40.375 33.015625 40.375 
z
M 52.59375 71.296875 
L 52.59375 62.3125 
Q 48.875 64.0625 45.09375 64.984375 
Q 41.3125 65.921875 37.59375 65.921875 
Q 27.828125 65.921875 22.671875 59.328125 
Q 17.53125 52.734375 16.796875 39.40625 
Q 19.671875 43.65625 24.015625 45.921875 
Q 28.375 48.1875 33.59375 48.1875 
Q 44.578125 48.1875 50.953125 41.515625 
Q 57.328125 34.859375 57.328125 23.390625 
Q 57.328125 12.15625 50.6875 5.359375 
Q 44.046875 -1.421875 33.015625 -1.421875 
Q 20.359375 -1.421875 13.671875 8.265625 
Q 6.984375 17.96875 6.984375 36.375 
Q 6.984375 53.65625 15.1875 63.9375 
Q 23.390625 74.21875 37.203125 74.21875 
Q 40.921875 74.21875 44.703125 73.484375 
Q 48.484375 72.75 52.59375 71.296875 
z
" id="DejaVuSans-36"/>
      </defs>
      <g transform="translate(34.696875 162.762671)scale(0.1 -0.1)">
       <use xlink:href="#DejaVuSans-30"/>
       <use x="63.623047" xlink:href="#DejaVuSans-2e"/>
       <use x="95.410156" xlink:href="#DejaVuSans-36"/>
      </g>
     </g>
    </g>
    <g id="ytick_5">
     <g id="line2d_29">
      <path clip-path="url(#p020e728336)" d="M 57.6 127.475616 
L 414.72 127.475616 
" style="fill:none;stroke:#b0b0b0;stroke-linecap:square;stroke-width:0.8;"/>
     </g>
     <g id="line2d_30">
      <g>
       <use style="stroke:#000000;stroke-width:0.8;" x="57.6" xlink:href="#mcc3ee298e1" y="127.475616"/>
      </g>
     </g>
     <g id="text_16">
      <!-- 0.8 -->
      <g transform="translate(34.696875 131.274835)scale(0.1 -0.1)">
       <use xlink:href="#DejaVuSans-30"/>
       <use x="63.623047" xlink:href="#DejaVuSans-2e"/>
       <use x="95.410156" xlink:href="#DejaVuSans-38"/>
      </g>
     </g>
    </g>
    <g id="ytick_6">
     <g id="line2d_31">
      <path clip-path="url(#p020e728336)" d="M 57.6 95.98778 
L 414.72 95.98778 
" style="fill:none;stroke:#b0b0b0;stroke-linecap:square;stroke-width:0.8;"/>
     </g>
     <g id="line2d_32">
      <g>
       <use style="stroke:#000000;stroke-width:0.8;" x="57.6" xlink:href="#mcc3ee298e1" y="95.98778"/>
      </g>
     </g>
     <g id="text_17">
      <!-- 1.0 -->
      <g transform="translate(34.696875 99.786999)scale(0.1 -0.1)">
       <use xlink:href="#DejaVuSans-31"/>
       <use x="63.623047" xlink:href="#DejaVuSans-2e"/>
       <use x="95.410156" xlink:href="#DejaVuSans-30"/>
      </g>
     </g>
    </g>
    <g id="ytick_7">
     <g id="line2d_33">
      <path clip-path="url(#p020e728336)" d="M 57.6 64.499944 
L 414.72 64.499944 
" style="fill:none;stroke:#b0b0b0;stroke-linecap:square;stroke-width:0.8;"/>
     </g>
     <g id="line2d_34">
      <g>
       <use style="stroke:#000000;stroke-width:0.8;" x="57.6" xlink:href="#mcc3ee298e1" y="64.499944"/>
      </g>
     </g>
     <g id="text_18">
      <!-- 1.2 -->
      <g transform="translate(34.696875 68.299163)scale(0.1 -0.1)">
       <use xlink:href="#DejaVuSans-31"/>
       <use x="63.623047" xlink:href="#DejaVuSans-2e"/>
       <use x="95.410156" xlink:href="#DejaVuSans-32"/>
      </g>
     </g>
    </g>
    <g id="text_19">
     <!-- Detrended Displacement (m) -->
     <defs>
      <path d="M 41.109375 46.296875 
Q 39.59375 47.171875 37.8125 47.578125 
Q 36.03125 48 33.890625 48 
Q 26.265625 48 22.1875 43.046875 
Q 18.109375 38.09375 18.109375 28.8125 
L 18.109375 0 
L 9.078125 0 
L 9.078125 54.6875 
L 18.109375 54.6875 
L 18.109375 46.1875 
Q 20.953125 51.171875 25.484375 53.578125 
Q 30.03125 56 36.53125 56 
Q 37.453125 56 38.578125 55.875 
Q 39.703125 55.765625 41.0625 55.515625 
z
" id="DejaVuSans-72"/>
      <path d="M 54.890625 33.015625 
L 54.890625 0 
L 45.90625 0 
L 45.90625 32.71875 
Q 45.90625 40.484375 42.875 44.328125 
Q 39.84375 48.1875 33.796875 48.1875 
Q 26.515625 48.1875 22.3125 43.546875 
Q 18.109375 38.921875 18.109375 30.90625 
L 18.109375 0 
L 9.078125 0 
L 9.078125 54.6875 
L 18.109375 54.6875 
L 18.109375 46.1875 
Q 21.34375 51.125 25.703125 53.5625 
Q 30.078125 56 35.796875 56 
Q 45.21875 56 50.046875 50.171875 
Q 54.890625 44.34375 54.890625 33.015625 
z
" id="DejaVuSans-6e"/>
      <path d="M 45.40625 46.390625 
L 45.40625 75.984375 
L 54.390625 75.984375 
L 54.390625 0 
L 45.40625 0 
L 45.40625 8.203125 
Q 42.578125 3.328125 38.25 0.953125 
Q 33.9375 -1.421875 27.875 -1.421875 
Q 17.96875 -1.421875 11.734375 6.484375 
Q 5.515625 14.40625 5.515625 27.296875 
Q 5.515625 40.1875 11.734375 48.09375 
Q 17.96875 56 27.875 56 
Q 33.9375 56 38.25 53.625 
Q 42.578125 51.265625 45.40625 46.390625 
z
M 14.796875 27.296875 
Q 14.796875 17.390625 18.875 11.75 
Q 22.953125 6.109375 30.078125 6.109375 
Q 37.203125 6.109375 41.296875 11.75 
Q 45.40625 17.390625 45.40625 27.296875 
Q 45.40625 37.203125 41.296875 42.84375 
Q 37.203125 48.484375 30.078125 48.484375 
Q 22.953125 48.484375 18.875 42.84375 
Q 14.796875 37.203125 14.796875 27.296875 
z
" id="DejaVuSans-64"/>
      <path d="M 9.421875 54.6875 
L 18.40625 54.6875 
L 18.40625 0 
L 9.421875 0 
z
M 9.421875 75.984375 
L 18.40625 75.984375 
L 18.40625 64.59375 
L 9.421875 64.59375 
z
" id="DejaVuSans-69"/>
      <path d="M 44.28125 53.078125 
L 44.28125 44.578125 
Q 40.484375 46.53125 36.375 47.5 
Q 32.28125 48.484375 27.875 48.484375 
Q 21.1875 48.484375 17.84375 46.4375 
Q 14.5 44.390625 14.5 40.28125 
Q 14.5 37.15625 16.890625 35.375 
Q 19.28125 33.59375 26.515625 31.984375 
L 29.59375 31.296875 
Q 39.15625 29.25 43.1875 25.515625 
Q 47.21875 21.78125 47.21875 15.09375 
Q 47.21875 7.46875 41.1875 3.015625 
Q 35.15625 -1.421875 24.609375 -1.421875 
Q 20.21875 -1.421875 15.453125 -0.5625 
Q 10.6875 0.296875 5.421875 2 
L 5.421875 11.28125 
Q 10.40625 8.6875 15.234375 7.390625 
Q 20.0625 6.109375 24.8125 6.109375 
Q 31.15625 6.109375 34.5625 8.28125 
Q 37.984375 10.453125 37.984375 14.40625 
Q 37.984375 18.0625 35.515625 20.015625 
Q 33.0625 21.96875 24.703125 23.78125 
L 21.578125 24.515625 
Q 13.234375 26.265625 9.515625 29.90625 
Q 5.8125 33.546875 5.8125 39.890625 
Q 5.8125 47.609375 11.28125 51.796875 
Q 16.75 56 26.8125 56 
Q 31.78125 56 36.171875 55.265625 
Q 40.578125 54.546875 44.28125 53.078125 
z
" id="DejaVuSans-73"/>
      <path d="M 18.109375 8.203125 
L 18.109375 -20.796875 
L 9.078125 -20.796875 
L 9.078125 54.6875 
L 18.109375 54.6875 
L 18.109375 46.390625 
Q 20.953125 51.265625 25.265625 53.625 
Q 29.59375 56 35.59375 56 
Q 45.5625 56 51.78125 48.09375 
Q 58.015625 40.1875 58.015625 27.296875 
Q 58.015625 14.40625 51.78125 6.484375 
Q 45.5625 -1.421875 35.59375 -1.421875 
Q 29.59375 -1.421875 25.265625 0.953125 
Q 20.953125 3.328125 18.109375 8.203125 
z
M 48.6875 27.296875 
Q 48.6875 37.203125 44.609375 42.84375 
Q 40.53125 48.484375 33.40625 48.484375 
Q 26.265625 48.484375 22.1875 42.84375 
Q 18.109375 37.203125 18.109375 27.296875 
Q 18.109375 17.390625 22.1875 11.75 
Q 26.265625 6.109375 33.40625 6.109375 
Q 40.53125 6.109375 44.609375 11.75 
Q 48.6875 17.390625 48.6875 27.296875 
z
" id="DejaVuSans-70"/>
      <path d="M 9.421875 75.984375 
L 18.40625 75.984375 
L 18.40625 0 
L 9.421875 0 
z
" id="DejaVuSans-6c"/>
      <path d="M 48.78125 52.59375 
L 48.78125 44.1875 
Q 44.96875 46.296875 41.140625 47.34375 
Q 37.3125 48.390625 33.40625 48.390625 
Q 24.65625 48.390625 19.8125 42.84375 
Q 14.984375 37.3125 14.984375 27.296875 
Q 14.984375 17.28125 19.8125 11.734375 
Q 24.65625 6.203125 33.40625 6.203125 
Q 37.3125 6.203125 41.140625 7.25 
Q 44.96875 8.296875 48.78125 10.40625 
L 48.78125 2.09375 
Q 45.015625 0.34375 40.984375 -0.53125 
Q 36.96875 -1.421875 32.421875 -1.421875 
Q 20.0625 -1.421875 12.78125 6.34375 
Q 5.515625 14.109375 5.515625 27.296875 
Q 5.515625 40.671875 12.859375 48.328125 
Q 20.21875 56 33.015625 56 
Q 37.15625 56 41.109375 55.140625 
Q 45.0625 54.296875 48.78125 52.59375 
z
" id="DejaVuSans-63"/>
      <path d="M 52 44.1875 
Q 55.375 50.25 60.0625 53.125 
Q 64.75 56 71.09375 56 
Q 79.640625 56 84.28125 50.015625 
Q 88.921875 44.046875 88.921875 33.015625 
L 88.921875 0 
L 79.890625 0 
L 79.890625 32.71875 
Q 79.890625 40.578125 77.09375 44.375 
Q 74.3125 48.1875 68.609375 48.1875 
Q 61.625 48.1875 57.5625 43.546875 
Q 53.515625 38.921875 53.515625 30.90625 
L 53.515625 0 
L 44.484375 0 
L 44.484375 32.71875 
Q 44.484375 40.625 41.703125 44.40625 
Q 38.921875 48.1875 33.109375 48.1875 
Q 26.21875 48.1875 22.15625 43.53125 
Q 18.109375 38.875 18.109375 30.90625 
L 18.109375 0 
L 9.078125 0 
L 9.078125 54.6875 
L 18.109375 54.6875 
L 18.109375 46.1875 
Q 21.1875 51.21875 25.484375 53.609375 
Q 29.78125 56 35.6875 56 
Q 41.65625 56 45.828125 52.96875 
Q 50 49.953125 52 44.1875 
z
" id="DejaVuSans-6d"/>
      <path d="M 31 75.875 
Q 24.46875 64.65625 21.28125 53.65625 
Q 18.109375 42.671875 18.109375 31.390625 
Q 18.109375 20.125 21.3125 9.0625 
Q 24.515625 -2 31 -13.1875 
L 23.1875 -13.1875 
Q 15.875 -1.703125 12.234375 9.375 
Q 8.59375 20.453125 8.59375 31.390625 
Q 8.59375 42.28125 12.203125 53.3125 
Q 15.828125 64.359375 23.1875 75.875 
z
" id="DejaVuSans-28"/>
      <path d="M 8.015625 75.875 
L 15.828125 75.875 
Q 23.140625 64.359375 26.78125 53.3125 
Q 30.421875 42.28125 30.421875 31.390625 
Q 30.421875 20.453125 26.78125 9.375 
Q 23.140625 -1.703125 15.828125 -13.1875 
L 8.015625 -13.1875 
Q 14.5 -2 17.703125 9.0625 
Q 20.90625 20.125 20.90625 31.390625 
Q 20.90625 42.671875 17.703125 53.65625 
Q 14.5 64.65625 8.015625 75.875 
z
" id="DejaVuSans-29"/>
     </defs>
     <g transform="translate(28.617187 231.909594)rotate(-90)scale(0.1 -0.1)">
      <use xlink:href="#DejaVuSans-44"/>
      <use x="77.001953" xlink:href="#DejaVuSans-65"/>
      <use x="138.525391" xlink:href="#DejaVuSans-74"/>
      <use x="177.734375" xlink:href="#DejaVuSans-72"/>
      <use x="218.816406" xlink:href="#DejaVuSans-65"/>
      <use x="280.339844" xlink:href="#DejaVuSans-6e"/>
      <use x="343.71875" xlink:href="#DejaVuSans-64"/>
      <use x="407.195312" xlink:href="#DejaVuSans-65"/>
      <use x="468.71875" xlink:href="#DejaVuSans-64"/>
      <use x="532.195312" xlink:href="#DejaVuSans-20"/>
      <use x="563.982422" xlink:href="#DejaVuSans-44"/>
      <use x="640.984375" xlink:href="#DejaVuSans-69"/>
      <use x="668.767578" xlink:href="#DejaVuSans-73"/>
      <use x="720.867188" xlink:href="#DejaVuSans-70"/>
      <use x="784.34375" xlink:href="#DejaVuSans-6c"/>
      <use x="812.126953" xlink:href="#DejaVuSans-61"/>
      <use x="873.40625" xlink:href="#DejaVuSans-63"/>
      <use x="928.386719" xlink:href="#DejaVuSans-65"/>
      <use x="989.910156" xlink:href="#DejaVuSans-6d"/>
      <use x="1087.322266" xlink:href="#DejaVuSans-65"/>
      <use x="1148.845703" xlink:href="#DejaVuSans-6e"/>
      <use x="1212.224609" xlink:href="#DejaVuSans-74"/>
      <use x="1251.433594" xlink:href="#DejaVuSans-20"/>
      <use x="1283.220703" xlink:href="#DejaVuSans-28"/>
      <use x="1322.234375" xlink:href="#DejaVuSans-6d"/>
      <use x="1419.646484" xlink:href="#DejaVuSans-29"/>
     </g>
    </g>
   </g>
   <g id="line2d_35">
    <path clip-path="url(#p020e728336)" d="M 58.206796 244.24788 
L 58.732925 244.543361 
L 60.311314 244.608642 
L 60.837443 244.867392 
L 61.363573 244.942932 
L 61.889702 244.797809 
L 63.99422 245.225761 
L 64.520349 245.246984 
L 65.046479 245.075211 
L 65.572608 245.120393 
L 66.098737 245.034986 
L 66.624867 245.129568 
L 67.677126 245.565772 
L 68.729385 245.695042 
L 69.255514 245.390968 
L 69.781643 245.824264 
L 70.307773 245.884231 
L 70.833902 246.091093 
L 71.360032 245.754651 
L 72.41229 246.129027 
L 73.990679 246.546634 
L 74.516808 246.402351 
L 75.569067 246.615578 
L 76.095196 246.458938 
L 76.621326 246.489751 
L 77.147455 246.374363 
L 79.251973 247.087096 
L 79.778102 246.968985 
L 80.304232 247.39861 
L 81.88262 245.997264 
L 82.934879 246.165754 
L 83.461008 245.983173 
L 83.987138 246.312076 
L 85.039397 246.497916 
L 86.091656 246.437138 
L 86.617785 246.582428 
L 87.143914 246.583368 
L 88.722303 247.054677 
L 89.774562 247.181938 
L 90.300691 247.080661 
L 90.82682 247.284848 
L 91.879079 247.403441 
L 92.931338 247.423558 
L 93.457467 247.169425 
L 93.983597 247.047921 
L 94.509726 247.27838 
L 95.561985 248.060805 
L 96.088115 247.979243 
L 98.192632 248.495972 
L 99.771021 248.345998 
L 100.823279 248.824532 
L 101.349409 248.788319 
L 101.875538 249.094406 
L 102.927797 249.325481 
L 103.453927 249.538506 
L 103.980056 249.478773 
L 104.506185 249.659919 
L 105.032315 249.693552 
L 105.558444 250.045377 
L 106.084574 249.955901 
L 106.610703 250.028664 
L 107.136833 250.580645 
L 107.662962 250.90129 
L 108.189091 251.045794 
L 109.76748 250.736973 
L 110.293609 251.201899 
L 111.345868 251.71752 
L 111.871997 252.167601 
L 112.398127 252.386502 
L 113.450386 252.384786 
L 113.976515 253.065189 
L 114.502644 253.252635 
L 116.081033 253.120588 
L 116.607162 253.197432 
L 118.18555 252.813786 
L 118.71168 252.862596 
L 119.237809 252.715485 
L 119.763939 252.748744 
L 120.290068 252.930043 
L 120.816198 252.715577 
L 121.342327 253.150923 
L 121.868456 254.618542 
L 122.920715 253.5147 
L 124.499104 254.22548 
L 125.025233 254.25734 
L 125.551362 254.034212 
L 127.129751 254.790886 
L 128.708139 255.863629 
L 129.760398 256.069104 
L 130.286527 256.288873 
L 131.338786 256.151743 
L 131.864915 256.562782 
L 132.391045 256.710832 
L 132.917174 256.47319 
L 133.969433 257.273407 
L 134.495563 257.552186 
L 135.021692 257.515638 
L 135.547821 257.649175 
L 136.60008 258.494534 
L 137.12621 258.425926 
L 137.652339 258.476506 
L 138.178469 258.730769 
L 139.230727 259.047426 
L 140.809116 259.618215 
L 141.335245 259.815565 
L 141.861375 260.441656 
L 142.387504 260.364187 
L 142.913633 260.457107 
L 143.439763 260.183981 
L 143.965892 260.22337 
L 144.492022 260.39438 
L 145.54428 261.847945 
L 146.07041 262.039475 
L 146.596539 263.260249 
L 147.122669 263.605475 
L 148.174928 264.622297 
L 148.701057 264.852042 
L 149.753316 264.952511 
L 150.279445 265.277583 
L 151.857834 265.696028 
L 152.383963 265.587858 
L 155.54074 265.735437 
L 156.066869 265.8934 
L 156.592998 266.258663 
L 158.697516 266.980136 
L 160.802034 267.00912 
L 161.328163 266.862824 
L 161.854293 266.856992 
L 163.95881 267.400697 
L 164.48494 267.142722 
L 165.537199 266.056026 
L 166.063328 265.270381 
L 166.589457 265.116636 
L 167.115587 265.135383 
L 168.693975 263.997256 
L 169.746234 263.621155 
L 170.272363 263.59519 
L 171.324622 263.327563 
L 171.850752 263.350677 
L 173.42914 262.844354 
L 176.059787 263.231221 
L 176.585917 263.077801 
L 177.638175 263.091888 
L 178.690434 263.130819 
L 179.216564 263.043238 
L 181.847211 263.442913 
L 183.425599 263.807114 
L 183.951728 264.067878 
L 185.530117 263.947483 
L 186.056246 264.370291 
L 186.582376 264.571507 
L 187.634634 265.221894 
L 188.686893 265.207413 
L 189.213023 265.445211 
L 189.739152 265.4412 
L 190.265282 265.213807 
L 190.791411 265.407154 
L 191.31754 265.176089 
L 192.369799 265.313477 
L 192.895929 265.518193 
L 193.422058 265.592827 
L 193.948188 265.220442 
L 196.578835 265.237643 
L 197.104964 265.480639 
L 197.631094 265.524221 
L 198.157223 265.170862 
L 199.209482 265.059696 
L 199.735611 265.297406 
L 200.261741 265.196898 
L 200.78787 264.799908 
L 201.840129 264.413714 
L 202.366258 264.487126 
L 202.892388 264.350412 
L 203.944647 264.553918 
L 204.996905 264.443992 
L 206.049164 263.906771 
L 206.575294 263.497163 
L 207.627553 263.512197 
L 208.153682 263.339226 
L 208.679811 263.034501 
L 209.205941 263.125141 
L 209.73207 263.101604 
L 210.784329 263.572422 
L 212.362717 263.031265 
L 214.993365 262.851799 
L 216.045623 262.875655 
L 216.571753 262.885831 
L 217.097882 262.509649 
L 217.624012 262.550103 
L 218.150141 262.460743 
L 219.2024 261.917641 
L 219.728529 261.618843 
L 220.254659 261.528631 
L 221.306918 261.048366 
L 224.989824 256.91626 
L 226.042082 257.004444 
L 226.568212 256.840092 
L 230.251118 253.052414 
L 230.777247 253.007989 
L 231.303377 252.729427 
L 231.829506 252.1262 
L 232.881765 248.915343 
L 233.407894 250.384472 
L 233.934024 247.851854 
L 234.460153 248.190632 
L 234.986283 248.274644 
L 235.512412 247.764886 
L 236.564671 247.473038 
L 237.61693 246.763134 
L 238.143059 246.752636 
L 239.195318 246.174986 
L 239.721447 245.675729 
L 240.247577 245.707715 
L 242.352095 241.675897 
L 243.404353 241.983903 
L 244.456612 242.331182 
L 246.56113 242.28822 
L 247.087259 242.427153 
L 249.191777 243.37046 
L 249.717907 243.261532 
L 250.244036 243.327907 
L 250.770165 243.705276 
L 251.296295 243.843284 
L 252.874683 243.456611 
L 253.400812 243.21079 
L 254.453071 242.938936 
L 254.979201 242.789051 
L 255.50533 242.920616 
L 256.03146 243.664312 
L 256.557589 244.114791 
L 257.083718 244.263225 
L 257.609848 244.692084 
L 258.135977 244.911799 
L 258.662107 244.917465 
L 259.714366 244.367719 
L 260.240495 244.494994 
L 260.766624 244.394173 
L 261.818883 243.493328 
L 262.345013 243.236044 
L 263.397272 243.544851 
L 265.501789 244.287433 
L 267.080178 244.434364 
L 269.710825 244.951584 
L 270.763083 244.678582 
L 271.289213 244.719137 
L 271.815342 245.004379 
L 272.341472 245.142643 
L 273.393731 245.053273 
L 274.972119 245.513376 
L 275.498248 245.676552 
L 276.024378 246.051718 
L 276.550507 246.280405 
L 277.602766 247.270165 
L 278.128895 247.383448 
L 278.655025 247.359122 
L 279.707284 246.838479 
L 283.39019 246.596828 
L 283.916319 246.78197 
L 284.442449 247.195313 
L 284.968578 247.453882 
L 285.494707 247.43339 
L 286.020837 247.571976 
L 286.546966 247.590117 
L 289.703743 245.676036 
L 291.282131 245.602144 
L 292.33439 245.543941 
L 295.491166 245.159091 
L 298.121814 245.380823 
L 299.174072 245.339083 
L 301.27859 245.426824 
L 302.856978 245.47163 
L 304.961496 245.867579 
L 306.539884 246.495115 
L 307.592143 246.620574 
L 311.801179 246.656024 
L 312.853437 246.888416 
L 313.905696 246.845188 
L 315.484085 246.892392 
L 316.536343 246.703002 
L 317.588602 246.608453 
L 318.640861 246.821452 
L 320.219249 247.234312 
L 320.745379 247.181787 
L 321.797638 247.418144 
L 322.849896 247.558261 
L 323.376026 247.634213 
L 323.902155 247.897383 
L 324.954414 248.151122 
L 325.480544 248.275574 
L 327.585061 248.161278 
L 328.111191 248.166277 
L 329.16345 247.903174 
L 332.320226 248.013507 
L 333.372485 247.955745 
L 336.529262 248.045485 
L 340.212168 248.797694 
L 343.368944 249.163027 
L 343.895074 249.217224 
L 345.999591 250.079983 
L 346.525721 250.08957 
L 347.05185 250.270427 
L 347.577979 250.589918 
L 348.104109 250.750149 
L 349.682497 250.498834 
L 350.208627 250.63478 
L 350.734756 251.017453 
L 351.260885 251.202213 
L 351.787015 251.219464 
L 352.839274 252.051905 
L 353.365403 252.234215 
L 354.417662 252.974946 
L 354.943791 253.262645 
L 355.469921 253.828605 
L 356.52218 253.966172 
L 357.048309 253.800278 
L 357.574439 253.871095 
L 358.100568 254.177688 
L 358.626697 254.739024 
L 359.152827 254.975499 
L 359.678956 255.435517 
L 360.731215 255.780095 
L 361.783474 255.828068 
L 362.835733 256.40119 
L 364.414121 256.345321 
L 365.992509 256.154392 
L 367.044768 256.570194 
L 367.570898 256.365146 
L 368.623156 256.495266 
L 369.149286 256.555364 
L 369.675415 256.487961 
L 371.253804 256.572077 
L 372.306062 256.606193 
L 373.358321 256.640449 
L 373.884451 256.803194 
L 375.462839 256.875589 
L 377.567357 256.59948 
L 378.093486 256.363163 
L 378.619616 255.983766 
L 379.145745 256.152193 
L 380.724133 256.999773 
L 385.459298 257.987672 
L 388.089945 258.190548 
L 389.142204 258.250937 
L 390.194463 256.152137 
L 391.772851 256.272331 
L 392.82511 256.755499 
L 393.351239 257.000718 
L 394.403498 255.194581 
L 395.981887 255.775982 
L 396.508016 255.854896 
L 397.034145 256.127571 
L 398.086404 256.169304 
L 398.612534 256.42961 
L 406.504475 258.122693 
L 408.608993 257.896411 
L 410.187381 258.283876 
L 410.71351 258.452726 
L 411.765769 258.465498 
L 413.870287 258.494373 
L 415.448675 258.260237 
L 415.974805 258.324629 
L 417.027063 257.521115 
L 418.079322 257.479447 
L 420.18384 257.945038 
L 421.236099 257.90574 
L 422.814487 258.006802 
L 424.392875 258.175705 
L 426.497393 258.464243 
L 426.497393 258.464243 
" style="fill:none;stroke:#32cd32;stroke-dasharray:7.4,3.2;stroke-dashoffset:0;stroke-width:2;"/>
   </g>
   <g id="line2d_36">
    <path clip-path="url(#p020e728336)" d="M 58.206796 244.24788 
L 58.732925 244.275254 
L 59.259055 244.062485 
L 59.785184 244.048551 
L 60.311314 243.770196 
L 60.837443 243.831215 
L 61.363573 243.674146 
L 61.889702 243.369905 
L 62.941961 243.097726 
L 63.46809 243.252806 
L 66.098737 242.062611 
L 68.729385 241.705128 
L 69.255514 241.293965 
L 69.781643 241.480459 
L 70.307773 241.382315 
L 70.833902 241.422636 
L 71.360032 240.903063 
L 71.886161 240.835512 
L 72.41229 240.951103 
L 72.93842 240.847854 
L 73.464549 240.628081 
L 73.990679 240.695459 
L 74.516808 240.372151 
L 75.569067 240.184751 
L 76.621326 239.612697 
L 77.147455 239.284074 
L 77.673585 239.347772 
L 78.199714 239.038726 
L 78.725844 239.017109 
L 79.251973 239.154374 
L 79.778102 238.781057 
L 80.304232 239.130832 
L 81.88262 236.977746 
L 82.934879 236.767491 
L 83.461008 236.420694 
L 84.513267 236.470686 
L 86.091656 235.883128 
L 86.617785 235.846518 
L 87.143914 235.579006 
L 89.248432 235.448364 
L 90.300691 234.862782 
L 90.82682 234.892975 
L 92.405209 234.411452 
L 92.931338 234.140404 
L 93.983597 233.321515 
L 94.509726 233.237704 
L 95.035856 233.32331 
L 95.561985 233.530486 
L 96.614244 233.075318 
L 97.140373 233.116255 
L 98.718762 232.564314 
L 99.771021 232.049118 
L 100.29715 231.911642 
L 100.823279 232.015124 
L 101.349409 231.648285 
L 102.927797 231.6666 
L 103.453927 231.790131 
L 103.980056 231.371353 
L 104.506185 231.376658 
L 105.032315 231.058304 
L 105.558444 231.210281 
L 106.084574 230.906863 
L 106.610703 230.834751 
L 107.136833 230.927894 
L 107.662962 231.148466 
L 108.715221 230.747657 
L 109.24135 230.447145 
L 109.76748 229.96961 
L 110.293609 230.071908 
L 111.345868 229.896727 
L 111.871997 230.164217 
L 112.398127 230.171724 
L 113.450386 229.636719 
L 113.976515 229.992103 
L 114.502644 229.874838 
L 117.133292 228.420976 
L 117.659421 227.968741 
L 118.71168 227.568342 
L 119.237809 227.223765 
L 120.290068 226.831026 
L 120.816198 226.325676 
L 121.342327 227.010837 
L 121.868456 229.218599 
L 122.394586 229.288644 
L 123.446845 227.813565 
L 123.972974 226.0336 
L 125.025233 224.38017 
L 125.551362 223.135889 
L 126.077492 222.605669 
L 128.708139 221.639583 
L 129.760398 220.920231 
L 130.286527 220.789256 
L 131.338786 219.644156 
L 131.864915 219.618984 
L 132.917174 218.674958 
L 133.443304 218.464934 
L 133.969433 218.631069 
L 134.495563 218.302394 
L 135.021692 217.836084 
L 136.073951 217.671359 
L 136.60008 217.672591 
L 137.652339 216.871976 
L 138.178469 216.702175 
L 138.704598 216.351487 
L 139.756857 216.008284 
L 140.809116 215.223637 
L 141.861375 215.440144 
L 142.913633 214.994274 
L 144.492022 213.733012 
L 145.018151 214.402293 
L 145.54428 214.63037 
L 146.07041 214.608602 
L 146.596539 215.133041 
L 147.122669 215.158508 
L 148.174928 215.386668 
L 149.227186 215.014422 
L 150.279445 214.60342 
L 151.857834 213.933039 
L 152.910092 213.236154 
L 153.962351 212.5727 
L 156.066869 211.428993 
L 156.592998 211.404688 
L 159.223646 210.475451 
L 159.749775 210.024567 
L 160.275904 209.799329 
L 161.328163 208.900962 
L 162.380422 208.382409 
L 162.906551 208.289483 
L 163.95881 207.703137 
L 164.48494 207.106539 
L 165.011069 206.800552 
L 165.537199 206.259956 
L 166.063328 204.567533 
L 166.589457 203.702168 
L 167.115587 203.502044 
L 167.641716 202.989717 
L 169.746234 200.025347 
L 172.903011 197.131716 
L 173.42914 196.239731 
L 174.481399 195.229072 
L 175.533658 194.197293 
L 176.059787 193.95476 
L 177.112046 192.878024 
L 177.638175 192.405395 
L 178.164305 192.133111 
L 179.216564 191.148326 
L 180.268823 190.288084 
L 180.794952 189.817833 
L 182.89947 188.62204 
L 184.477858 187.179733 
L 185.003987 186.947784 
L 185.530117 186.39819 
L 186.056246 186.146216 
L 186.582376 185.687238 
L 187.108505 185.585374 
L 187.634634 185.224079 
L 188.686893 184.323789 
L 189.213023 184.079312 
L 189.739152 183.671639 
L 190.791411 181.873227 
L 191.84367 180.344687 
L 192.895929 179.448186 
L 197.631094 173.97822 
L 198.683352 172.451919 
L 199.209482 171.849989 
L 199.735611 171.433631 
L 200.261741 170.743547 
L 201.313999 168.656799 
L 201.840129 169.405217 
L 202.366258 168.643623 
L 202.892388 169.003616 
L 203.944647 167.729192 
L 204.996905 166.419065 
L 206.049164 164.601781 
L 207.627553 161.021914 
L 209.205941 157.947856 
L 210.2582 156.357626 
L 210.784329 155.74056 
L 212.888847 151.332984 
L 214.993365 146.935082 
L 216.571753 144.154821 
L 217.097882 142.093049 
L 217.624012 140.986466 
L 219.2024 136.554714 
L 219.728529 136.452629 
L 220.780788 133.719373 
L 221.306918 131.749404 
L 224.989824 126.715314 
L 226.568212 121.503694 
L 230.251118 119.040028 
L 230.777247 116.312357 
L 231.303377 112.545591 
L 231.829506 109.630937 
L 232.881765 107.604072 
L 233.407894 108.920672 
L 233.934024 105.618501 
L 234.460153 105.260099 
L 234.986283 106.264345 
L 235.512412 106.502162 
L 236.038541 106.20219 
L 236.564671 106.437313 
L 237.0908 105.50893 
L 237.61693 105.481862 
L 238.143059 105.577341 
L 238.669189 105.323706 
L 239.195318 105.230614 
L 239.721447 105.004243 
L 240.247577 104.940868 
L 242.352095 101.310682 
L 242.878224 101.531005 
L 243.930483 102.187124 
L 244.456612 102.404745 
L 245.508871 102.618522 
L 247.087259 103.282765 
L 248.139518 103.882657 
L 249.191777 104.700661 
L 249.717907 104.734842 
L 251.296295 105.304606 
L 251.822424 105.410553 
L 254.979201 104.883251 
L 255.50533 105.175634 
L 256.03146 106.020066 
L 256.557589 106.522399 
L 257.083718 106.708426 
L 258.135977 107.391238 
L 258.662107 107.44708 
L 259.714366 107.040802 
L 260.240495 107.330705 
L 260.766624 107.45435 
L 262.345013 106.470515 
L 266.027919 108.04204 
L 267.080178 108.290514 
L 267.606307 108.429471 
L 268.132436 108.449042 
L 269.184695 108.709616 
L 269.710825 108.80258 
L 270.763083 108.7822 
L 271.289213 108.939162 
L 272.341472 109.36489 
L 272.867601 109.408009 
L 275.498248 110.306585 
L 277.602766 112.023112 
L 278.128895 112.109774 
L 278.655025 112.071769 
L 279.707284 111.630263 
L 282.337931 111.609968 
L 283.916319 111.939722 
L 284.968578 112.58167 
L 287.073096 113.071973 
L 288.125354 112.257801 
L 288.651484 111.745002 
L 289.703743 111.209981 
L 292.33439 111.210206 
L 293.912778 110.828516 
L 297.069555 111.181923 
L 297.595684 111.32174 
L 301.27859 111.560324 
L 304.435367 112.039778 
L 306.013755 112.859335 
L 308.118273 113.170767 
L 309.696661 113.287738 
L 312.327308 113.691815 
L 312.853437 113.789134 
L 313.905696 113.831316 
L 316.010214 113.902324 
L 317.062473 113.762781 
L 318.114732 113.779518 
L 320.745379 114.549169 
L 321.271508 114.585488 
L 322.323767 114.936607 
L 323.376026 115.329119 
L 323.902155 115.541541 
L 324.428285 115.554886 
L 325.480544 115.804489 
L 326.006673 115.739088 
L 328.111191 116.032266 
L 328.63732 115.787112 
L 330.215708 115.806479 
L 332.320226 116.036772 
L 333.372485 115.982239 
L 334.950873 116.142053 
L 336.529262 116.310342 
L 337.58152 116.638571 
L 339.159909 117.283445 
L 340.212168 117.452003 
L 341.264426 117.606096 
L 342.316685 117.663341 
L 343.368944 117.802868 
L 343.895074 118.164544 
L 344.421203 118.272382 
L 344.947332 118.536226 
L 346.525721 118.955793 
L 347.577979 119.540709 
L 349.682497 119.435956 
L 350.734756 120.046776 
L 351.260885 120.06403 
L 351.787015 120.324551 
L 352.839274 121.191365 
L 353.365403 121.439952 
L 354.417662 122.112563 
L 354.943791 122.429334 
L 355.469921 122.954434 
L 356.52218 123.113664 
L 357.048309 122.966583 
L 358.100568 123.430378 
L 358.626697 124.009168 
L 359.678956 124.783189 
L 361.257344 125.164607 
L 361.783474 125.215561 
L 362.309603 125.637561 
L 362.835733 125.846218 
L 365.46638 125.687809 
L 365.992509 125.777018 
L 367.044768 126.17043 
L 367.570898 126.004976 
L 368.623156 126.189407 
L 369.149286 126.348907 
L 369.675415 126.282403 
L 371.253804 126.359909 
L 371.779933 126.344647 
L 374.41058 126.766093 
L 375.988968 126.795948 
L 377.041227 126.695541 
L 378.093486 126.297308 
L 378.619616 125.987607 
L 379.145745 126.195749 
L 379.671874 126.554423 
L 380.724133 126.965842 
L 382.302521 127.504763 
L 383.88091 127.81199 
L 384.933169 128.071419 
L 385.985427 128.228496 
L 387.037686 128.309175 
L 388.089945 128.414902 
L 389.142204 128.528219 
L 390.194463 126.392638 
L 391.772851 126.552672 
L 393.351239 127.330718 
L 394.403498 125.490684 
L 394.929628 125.760832 
L 395.455757 125.860416 
L 397.034145 126.422121 
L 398.612534 126.664187 
L 399.138663 126.893477 
L 401.243181 127.403145 
L 403.347698 127.846584 
L 403.873828 127.909528 
L 404.926087 128.192117 
L 405.978346 128.519727 
L 407.030604 128.507821 
L 409.135122 128.360865 
L 411.23964 128.847055 
L 415.974805 128.527223 
L 417.027063 127.790048 
L 418.079322 127.742573 
L 420.18384 128.041076 
L 420.709969 127.917639 
L 426.497393 128.343004 
L 426.497393 128.343004 
" style="fill:none;stroke:#32cd32;stroke-linecap:square;stroke-width:2;"/>
   </g>
   <g id="line2d_37">
    <path clip-path="url(#p020e728336)" d="M 233.302668 276.48 
L 233.302668 41.472 
" style="fill:none;stroke:#000000;stroke-dasharray:3.7,1.6;stroke-dashoffset:0;"/>
   </g>
   <g id="line2d_38">
    <path clip-path="url(#p020e728336)" d="M 121.763231 276.48 
L 121.763231 41.472 
" style="fill:none;stroke:#000000;stroke-dasharray:3.7,1.6;stroke-dashoffset:0;"/>
   </g>
   <g id="line2d_39">
    <path clip-path="url(#p020e728336)" d="M 58.206796 252.599966 
L 58.732925 252.694498 
L 59.259055 252.605564 
L 59.785184 252.646856 
L 60.311314 252.529798 
L 60.837443 252.793559 
L 61.889702 252.571518 
L 62.941961 252.525521 
L 63.46809 252.81569 
L 66.098737 251.949185 
L 68.203255 252.23988 
L 68.729385 252.257272 
L 69.255514 252.04586 
L 69.781643 252.321733 
L 70.307773 252.287197 
L 70.833902 252.493717 
L 71.360032 252.068605 
L 71.886161 252.036929 
L 72.41229 252.333386 
L 73.990679 252.433347 
L 74.516808 252.25697 
L 75.569067 252.288093 
L 77.147455 251.651448 
L 77.673585 251.920729 
L 78.199714 251.675979 
L 79.251973 252.139851 
L 79.778102 251.89523 
L 80.304232 252.293542 
L 81.88262 250.572562 
L 82.934879 250.638946 
L 83.461008 250.419303 
L 84.513267 250.752178 
L 85.039397 250.541767 
L 86.091656 250.363238 
L 86.617785 250.449151 
L 87.143914 250.232915 
L 89.248432 250.497636 
L 90.300691 250.126978 
L 90.82682 250.269153 
L 92.931338 249.877901 
L 93.457467 249.500929 
L 93.983597 249.378122 
L 94.509726 249.512785 
L 95.561985 250.095399 
L 96.088115 250.041813 
L 96.614244 249.809099 
L 97.140373 250.0015 
L 98.192632 249.75594 
L 98.718762 249.742684 
L 100.29715 249.376431 
L 100.823279 249.608578 
L 101.349409 249.369155 
L 102.401668 249.5812 
L 103.453927 249.937007 
L 103.980056 249.765311 
L 104.506185 249.858766 
L 105.032315 249.717577 
L 105.558444 249.874964 
L 106.610703 249.61603 
L 108.189091 250.075945 
L 109.24135 249.752375 
L 109.76748 249.379848 
L 110.819738 249.624057 
L 111.345868 249.497952 
L 111.871997 249.853156 
L 112.398127 249.95712 
L 113.450386 249.596733 
L 113.976515 250.2456 
L 114.502644 250.266405 
L 115.028774 250.043984 
L 115.554903 249.995623 
L 117.133292 249.472798 
L 117.659421 249.150194 
L 120.290068 248.536984 
L 120.816198 248.286924 
L 121.342327 248.687141 
L 121.868456 250.607841 
L 122.394586 250.182226 
L 122.920715 252.293028 
L 124.499104 252.792251 
L 125.551362 253.027883 
L 126.077492 252.867185 
L 126.603621 253.178718 
L 127.65588 253.493564 
L 128.18201 253.48653 
L 129.234268 253.676351 
L 130.286527 253.89069 
L 131.338786 253.54192 
L 131.864915 253.520948 
L 132.917174 253.34929 
L 133.443304 253.287526 
L 133.969433 253.512024 
L 135.021692 253.352809 
L 136.60008 253.9873 
L 137.12621 253.867504 
L 137.652339 253.996272 
L 138.178469 253.7459 
L 139.756857 253.958902 
L 140.809116 253.447515 
L 141.861375 254.445522 
L 142.387504 254.232288 
L 142.913633 254.26197 
L 143.439763 253.981994 
L 143.965892 253.908549 
L 144.492022 253.657747 
L 145.018151 254.727964 
L 146.07041 255.224638 
L 146.596539 255.981131 
L 148.174928 257.286756 
L 148.701057 257.418827 
L 149.753316 257.390593 
L 150.279445 257.516917 
L 151.331704 257.266422 
L 151.857834 257.285309 
L 152.383963 257.131307 
L 153.962351 257.044421 
L 154.488481 257.197446 
L 155.54074 257.001634 
L 156.592998 257.243728 
L 157.119128 257.220926 
L 158.697516 257.426101 
L 159.223646 257.317624 
L 160.275904 257.364227 
L 161.328163 256.979643 
L 163.95881 256.786073 
L 164.48494 256.574443 
L 165.011069 256.686456 
L 165.537199 256.413326 
L 166.063328 255.216772 
L 166.589457 254.694741 
L 167.115587 254.749218 
L 168.167846 254.315021 
L 169.220105 253.715205 
L 169.746234 253.049617 
L 171.850752 252.749906 
L 172.376881 252.504773 
L 173.42914 252.341342 
L 173.955269 252.326426 
L 174.481399 252.453307 
L 175.533658 252.388685 
L 176.059787 252.655326 
L 176.585917 252.522335 
L 177.638175 252.49761 
L 178.164305 252.78681 
L 179.216564 252.659038 
L 179.742693 252.585187 
L 180.794952 252.697551 
L 181.321081 252.768732 
L 182.89947 253.525259 
L 184.477858 253.752988 
L 185.003987 253.742945 
L 185.530117 253.591309 
L 186.582376 254.135626 
L 187.108505 254.742585 
L 187.634634 255.07033 
L 188.160764 255.234841 
L 189.213023 255.843342 
L 189.739152 256.00234 
L 190.265282 255.857694 
L 190.791411 256.152465 
L 191.31754 256.218542 
L 191.84367 256.494519 
L 192.369799 256.932357 
L 193.422058 257.30688 
L 193.948188 257.257593 
L 194.474317 257.444824 
L 195.000446 257.437595 
L 195.526576 257.568367 
L 196.052705 257.876935 
L 196.578835 257.918074 
L 197.104964 258.37024 
L 197.631094 258.407059 
L 198.157223 258.281202 
L 198.683352 258.408584 
L 199.735611 259.092975 
L 200.261741 259.04623 
L 201.313999 258.694317 
L 201.840129 258.734629 
L 202.366258 259.036489 
L 202.892388 258.960456 
L 204.996905 259.670591 
L 206.049164 259.477999 
L 207.627553 259.988108 
L 208.679811 260.147183 
L 210.2582 261.066943 
L 210.784329 261.493265 
L 212.362717 261.565256 
L 213.941106 262.23312 
L 214.993365 262.815934 
L 216.045623 263.329607 
L 216.571753 263.555549 
L 217.624012 264.298229 
L 218.150141 264.36618 
L 218.67627 264.293148 
L 219.728529 264.739514 
L 220.254659 264.906589 
L 221.306918 265.020797 
L 224.989824 262.521946 
L 226.042082 263.112879 
L 226.568212 263.227957 
L 230.251118 262.508611 
L 231.303377 263.566038 
L 232.881765 265.925252 
L 233.407894 266.342768 
L 233.934024 260.780451 
L 234.460153 260.946624 
L 234.986283 259.765168 
L 235.512412 260.037206 
L 236.038541 259.50435 
L 236.564671 259.332964 
L 237.0908 258.711097 
L 237.61693 258.937271 
L 239.721447 258.067741 
L 240.247577 257.472762 
L 242.352095 253.431609 
L 242.878224 253.469099 
L 243.404353 254.045993 
L 243.930483 254.228364 
L 244.456612 254.261486 
L 244.982742 254.082438 
L 246.56113 253.88493 
L 247.087259 253.992018 
L 248.139518 254.559119 
L 248.665648 254.972078 
L 249.717907 255.346882 
L 250.770165 255.235812 
L 251.296295 255.272882 
L 252.874683 254.733796 
L 253.400812 254.687539 
L 254.979201 254.175676 
L 255.50533 254.244879 
L 256.557589 255.3052 
L 257.083718 255.424663 
L 257.609848 255.80901 
L 258.662107 255.901957 
L 259.714366 254.993136 
L 260.766624 255.183914 
L 261.292754 254.606023 
L 261.818883 253.856845 
L 262.345013 253.63768 
L 263.397272 253.941408 
L 264.44953 253.999222 
L 265.501789 254.238055 
L 266.554048 254.024206 
L 267.080178 254.187343 
L 268.132436 253.921638 
L 269.184695 254.101862 
L 270.236954 253.806748 
L 271.289213 253.786048 
L 272.341472 254.052744 
L 273.91986 253.96555 
L 274.445989 254.043913 
L 274.972119 254.295717 
L 275.498248 254.254078 
L 276.550507 254.939505 
L 277.076637 255.305297 
L 277.602766 255.396714 
L 278.655025 255.093161 
L 280.233413 254.036274 
L 281.285672 253.733407 
L 281.811801 253.699026 
L 282.337931 253.512463 
L 282.86406 253.450932 
L 283.39019 253.259459 
L 283.916319 253.312926 
L 284.968578 253.672539 
L 285.494707 253.536439 
L 287.073096 253.466255 
L 288.125354 252.35972 
L 289.177613 251.191937 
L 289.703743 250.818066 
L 292.33439 250.307367 
L 293.386649 249.803782 
L 294.438908 249.256482 
L 295.491166 249.071113 
L 297.069555 248.847008 
L 298.647943 248.635705 
L 300.226331 248.347328 
L 301.27859 248.056823 
L 304.435367 247.689876 
L 306.013755 248.106696 
L 308.118273 247.844275 
L 309.170531 247.66562 
L 310.74892 247.432891 
L 315.484085 246.906421 
L 317.062473 246.536749 
L 318.640861 246.362198 
L 319.69312 246.495275 
L 320.219249 246.581036 
L 321.271508 246.435523 
L 322.323767 246.534212 
L 322.849896 246.55856 
L 323.902155 246.853546 
L 324.428285 246.786967 
L 325.480544 246.890571 
L 326.006673 246.723329 
L 328.111191 246.745455 
L 328.63732 246.486073 
L 330.215708 246.370325 
L 332.320226 246.468053 
L 333.898614 246.227449 
L 336.003132 246.077662 
L 337.58152 246.381256 
L 339.159909 246.91736 
L 339.686038 247.047926 
L 340.738297 247.070903 
L 343.368944 247.203768 
L 343.895074 247.53545 
L 344.421203 247.600347 
L 345.999591 248.156053 
L 347.05185 248.288461 
L 347.577979 248.625418 
L 348.630238 248.604439 
L 349.682497 248.570498 
L 350.734756 249.107809 
L 351.260885 249.03437 
L 351.787015 249.315684 
L 352.839274 250.272123 
L 354.943791 251.482508 
L 355.469921 252.043708 
L 356.52218 252.16065 
L 357.048309 252.052084 
L 357.574439 252.229015 
L 358.100568 252.584532 
L 359.152827 253.54076 
L 359.678956 253.854486 
L 360.205086 253.995334 
L 360.731215 254.280715 
L 361.783474 254.29735 
L 362.309603 254.752727 
L 362.835733 254.935493 
L 365.46638 254.815843 
L 367.044768 255.332518 
L 367.570898 255.161931 
L 368.097027 255.169753 
L 369.149286 255.404802 
L 369.675415 255.309425 
L 375.988968 255.917345 
L 377.041227 255.749478 
L 378.619616 254.923725 
L 379.145745 255.078944 
L 379.671874 255.482322 
L 381.776392 256.374267 
L 383.88091 256.722416 
L 385.985427 257.140423 
L 387.037686 257.214096 
L 388.089945 257.277396 
L 388.616075 257.21329 
L 389.142204 257.301164 
L 390.194463 255.159007 
L 390.720592 255.214129 
L 391.246722 255.141926 
L 392.298981 255.39524 
L 393.351239 255.927897 
L 394.403498 254.127112 
L 394.929628 254.360035 
L 396.508016 254.761603 
L 397.034145 254.952499 
L 401.76931 255.700882 
L 402.821569 255.84648 
L 403.873828 255.838458 
L 405.978346 256.161865 
L 407.556734 255.867628 
L 408.608993 255.681859 
L 409.661252 255.68499 
L 410.71351 256.014907 
L 411.765769 255.922602 
L 413.344157 255.674051 
L 413.870287 255.55057 
L 414.396416 255.31262 
L 415.448675 255.112443 
L 415.974805 255.169518 
L 417.027063 254.419627 
L 419.657711 254.183256 
L 420.18384 254.174335 
L 421.236099 254.007941 
L 422.814487 253.864639 
L 424.392875 253.673043 
L 425.445134 253.662109 
L 426.497393 253.642637 
L 426.497393 253.642637 
" style="fill:none;stroke:#000000;stroke-dasharray:7.4,3.2;stroke-dashoffset:0;stroke-width:2;"/>
   </g>
   <g id="line2d_40">
    <path clip-path="url(#p020e728336)" d="M 58.206796 252.599966 
L 58.732925 252.419514 
L 59.785184 251.822976 
L 60.311314 251.4873 
L 60.837443 251.43216 
L 61.889702 250.761514 
L 62.941961 250.219903 
L 63.46809 250.194869 
L 65.046479 248.951772 
L 66.098737 248.075195 
L 67.150996 247.720594 
L 68.729385 247.086758 
L 69.255514 246.710137 
L 69.781643 246.661051 
L 70.833902 246.269998 
L 71.360032 245.641496 
L 71.886161 245.381098 
L 72.41229 245.363157 
L 73.990679 244.707123 
L 74.516808 244.330321 
L 75.042938 244.10607 
L 76.095196 243.29597 
L 77.147455 242.250113 
L 77.673585 242.300034 
L 78.199714 241.707687 
L 78.725844 241.763957 
L 79.251973 241.629209 
L 79.778102 241.241674 
L 80.304232 241.290016 
L 81.88262 238.650774 
L 82.40875 238.525628 
L 82.934879 238.269499 
L 83.987138 237.49398 
L 84.513267 237.476824 
L 85.565526 236.768216 
L 87.670044 235.4012 
L 88.196173 235.374403 
L 89.248432 234.99175 
L 90.300691 234.063719 
L 91.35295 233.610921 
L 92.931338 232.470006 
L 93.457467 231.788664 
L 93.983597 231.329267 
L 95.035856 231.043776 
L 95.561985 231.093345 
L 96.088115 230.794046 
L 96.614244 230.25226 
L 97.140373 230.063043 
L 98.192632 229.175286 
L 98.718762 229.004277 
L 99.244891 228.43395 
L 100.29715 227.710676 
L 100.823279 227.587484 
L 101.875538 226.845548 
L 102.401668 226.849335 
L 102.927797 226.583767 
L 103.453927 226.500988 
L 104.506185 225.744667 
L 105.032315 225.290518 
L 105.558444 225.124005 
L 107.136833 224.094872 
L 107.662962 224.132165 
L 108.715221 223.380982 
L 110.293609 221.823715 
L 110.819738 221.61407 
L 111.345868 221.194753 
L 111.871997 221.286222 
L 112.924256 220.974711 
L 113.450386 220.460712 
L 113.976515 220.521947 
L 114.502644 220.286543 
L 115.028774 219.678393 
L 116.081033 218.964751 
L 117.659421 217.173184 
L 118.71168 216.354039 
L 119.237809 215.838852 
L 119.763939 215.613534 
L 120.816198 214.584306 
L 121.868456 217.919919 
L 122.394586 216.451714 
L 122.920715 216.196887 
L 123.446845 215.811285 
L 123.972974 214.666963 
L 125.025233 214.510889 
L 126.077492 212.980743 
L 126.603621 212.962281 
L 127.129751 212.544826 
L 127.65588 212.357523 
L 128.18201 211.753 
L 129.234268 211.088449 
L 130.286527 210.214256 
L 131.338786 208.944365 
L 133.443304 206.673654 
L 133.969433 206.384168 
L 135.021692 205.104711 
L 135.547821 204.872708 
L 136.60008 204.08907 
L 137.12621 203.474309 
L 137.652339 203.032827 
L 139.230727 201.41079 
L 139.756857 201.047454 
L 140.809116 199.494883 
L 141.861375 199.368585 
L 142.913633 198.244406 
L 143.439763 197.835545 
L 143.965892 197.108021 
L 144.492022 196.624153 
L 145.018151 197.143519 
L 145.54428 196.887014 
L 146.07041 196.888543 
L 146.596539 197.006754 
L 148.174928 196.639659 
L 149.227186 195.904738 
L 156.066869 189.405837 
L 156.592998 189.035456 
L 157.645257 188.130104 
L 158.697516 187.216253 
L 159.749775 186.108164 
L 160.802034 184.863141 
L 162.380422 183.14211 
L 162.906551 182.80961 
L 164.48494 180.943384 
L 165.011069 180.540688 
L 165.537199 179.951035 
L 166.589457 176.764394 
L 169.220105 172.974156 
L 170.272363 170.959968 
L 171.324622 169.3621 
L 172.376881 167.92657 
L 172.903011 167.037553 
L 173.42914 165.452173 
L 174.481399 163.812327 
L 175.533658 161.864309 
L 177.112046 159.688758 
L 177.638175 158.674583 
L 178.164305 158.172925 
L 181.321081 153.606575 
L 182.37334 152.339615 
L 185.003987 148.118575 
L 185.530117 146.932278 
L 186.056246 146.421218 
L 186.582376 145.72493 
L 187.108505 145.439028 
L 187.634634 144.723854 
L 188.686893 142.801641 
L 189.213023 142.226586 
L 189.739152 141.480476 
L 190.265282 140.352632 
L 191.31754 137.509859 
L 193.948188 132.724637 
L 195.526576 129.309605 
L 197.631094 125.270593 
L 198.683352 122.945391 
L 199.209482 122.083367 
L 199.735611 121.452586 
L 200.261741 120.445031 
L 201.313999 117.446613 
L 201.840129 117.511051 
L 202.366258 116.533265 
L 202.892388 116.386011 
L 204.470776 112.779475 
L 204.996905 111.669295 
L 206.049164 108.71127 
L 206.575294 106.001483 
L 207.101423 105.190258 
L 208.153682 101.321066 
L 209.205941 98.09574 
L 211.310459 92.395426 
L 211.836588 90.523993 
L 213.414976 86.008158 
L 214.467235 82.654137 
L 216.571753 76.972538 
L 217.097882 73.98474 
L 217.624012 72.142596 
L 219.2024 64.763298 
L 219.728529 63.771555 
L 220.780788 59.430593 
L 221.306918 57.745984 
L 224.989824 54.012262 
L 225.515953 52.153826 
L 226.568212 45.896943 
L 230.251118 44.904627 
L 231.303377 41.863314 
L 231.829506 41.779071 
L 232.881765 40.942119 
L 233.407894 43.685128 
L 233.934024 40.878568 
L 234.460153 41.522797 
L 235.512412 44.93198 
L 236.038541 45.261916 
L 236.564671 46.396479 
L 237.0908 45.642817 
L 238.143059 46.679837 
L 238.669189 46.767965 
L 239.195318 47.113898 
L 239.721447 47.296374 
L 240.247577 47.250168 
L 241.299836 46.204465 
L 242.352095 44.920857 
L 243.404353 46.038987 
L 243.930483 46.673651 
L 246.56113 48.498869 
L 247.613389 49.528899 
L 249.717907 51.510885 
L 251.296295 52.484643 
L 253.400812 53.129776 
L 253.926942 53.063577 
L 254.979201 53.324085 
L 255.50533 53.763734 
L 256.03146 54.727298 
L 256.557589 55.337418 
L 258.135977 56.557553 
L 258.662107 56.863084 
L 259.714366 56.584969 
L 260.766624 57.240107 
L 262.345013 56.807832 
L 263.397272 57.702019 
L 264.97566 58.616054 
L 265.501789 59.064274 
L 266.554048 59.359737 
L 267.606307 59.859437 
L 268.132436 59.936972 
L 269.184695 60.518713 
L 270.236954 60.854109 
L 271.289213 61.342085 
L 272.341472 61.982265 
L 274.445989 63.042582 
L 276.024378 64.238254 
L 277.076637 65.413343 
L 278.128895 65.803815 
L 278.655025 65.876832 
L 280.233413 65.650152 
L 282.337931 66.114994 
L 283.39019 66.400992 
L 284.442449 67.233325 
L 285.494707 67.829172 
L 286.020837 67.900418 
L 287.073096 68.571552 
L 289.703743 66.907111 
L 290.229872 66.943187 
L 291.80826 67.46383 
L 292.33439 67.572693 
L 293.386649 67.486839 
L 294.438908 67.444852 
L 295.491166 67.63961 
L 296.543425 67.839868 
L 297.595684 68.252014 
L 299.700202 68.804764 
L 301.27859 69.111845 
L 304.435367 70.000453 
L 305.487626 70.796463 
L 307.592143 71.447457 
L 313.379567 72.748095 
L 314.957955 73.1223 
L 317.588602 73.236917 
L 318.114732 73.285836 
L 325.480544 75.754538 
L 326.006673 75.720377 
L 328.111191 76.27699 
L 329.689579 76.327457 
L 331.267967 76.583413 
L 332.320226 76.889965 
L 333.372485 76.945673 
L 336.003132 77.246579 
L 336.529262 77.495572 
L 337.055391 77.615788 
L 339.159909 78.785841 
L 340.212168 78.997884 
L 342.842815 79.502377 
L 345.999591 80.906775 
L 347.05185 81.344188 
L 347.577979 81.555891 
L 348.104109 81.572567 
L 349.156368 81.75075 
L 349.682497 81.859619 
L 350.208627 82.225456 
L 351.260885 82.434952 
L 352.313144 83.390097 
L 353.365403 84.232105 
L 353.891533 84.378048 
L 355.99605 85.939522 
L 356.52218 86.007445 
L 357.048309 85.932889 
L 358.100568 86.587955 
L 359.152827 87.671687 
L 360.205086 88.244808 
L 360.731215 88.498472 
L 361.783474 88.695148 
L 362.309603 89.192528 
L 362.835733 89.417682 
L 365.46638 89.564167 
L 367.044768 90.319283 
L 367.570898 90.176579 
L 368.623156 90.552763 
L 369.149286 90.71931 
L 369.675415 90.662784 
L 373.358321 91.206679 
L 373.884451 91.443891 
L 377.041227 91.45247 
L 378.619616 90.936881 
L 379.145745 91.203942 
L 379.671874 91.599885 
L 381.776392 92.562155 
L 382.828651 92.728191 
L 383.88091 92.974082 
L 385.459298 93.537256 
L 388.089945 93.9312 
L 388.616075 93.957239 
L 389.142204 94.119268 
L 390.194463 92.056815 
L 391.772851 92.347285 
L 393.351239 93.190394 
L 394.403498 91.53163 
L 394.929628 91.8746 
L 405.978346 94.798817 
L 409.135122 94.662207 
L 410.187381 95.014761 
L 410.71351 95.18406 
L 411.765769 95.213704 
L 414.396416 94.955025 
L 415.448675 94.877412 
L 415.974805 94.957918 
L 417.027063 94.312804 
L 419.131581 94.507683 
L 420.18384 94.679066 
L 421.762228 94.71238 
L 422.814487 94.768963 
L 423.866746 94.786286 
L 424.919005 94.856676 
L 426.497393 95.098487 
L 426.497393 95.098487 
" style="fill:none;stroke:#000000;stroke-linecap:square;stroke-width:2;"/>
   </g>
   <g id="line2d_41">
    <path clip-path="url(#p020e728336)" d="M 233.302668 276.48 
L 233.302668 41.472 
" style="fill:none;stroke:#000000;stroke-dasharray:3.7,1.6;stroke-dashoffset:0;"/>
   </g>
   <g id="line2d_42">
    <path clip-path="url(#p020e728336)" d="M 121.763231 276.48 
L 121.763231 41.472 
" style="fill:none;stroke:#000000;stroke-dasharray:3.7,1.6;stroke-dashoffset:0;"/>
   </g>
   <g id="patch_5">
    <path d="M 57.6 276.48 
L 57.6 41.472 
" style="fill:none;stroke:#000000;stroke-linecap:square;stroke-linejoin:miter;stroke-width:0.8;"/>
   </g>
   <g id="patch_6">
    <path d="M 414.72 276.48 
L 414.72 41.472 
" style="fill:none;stroke:#000000;stroke-linecap:square;stroke-linejoin:miter;stroke-width:0.8;"/>
   </g>
   <g id="patch_7">
    <path d="M 57.6 276.48 
L 414.72 276.48 
" style="fill:none;stroke:#000000;stroke-linecap:square;stroke-linejoin:miter;stroke-width:0.8;"/>
   </g>
   <g id="patch_8">
    <path d="M 57.6 41.472 
L 414.72 41.472 
" style="fill:none;stroke:#000000;stroke-linecap:square;stroke-linejoin:miter;stroke-width:0.8;"/>
   </g>
   <g id="legend_1">
    <g id="patch_9">
     <path d="M 64.6 108.5845 
L 165.698438 108.5845 
Q 167.698438 108.5845 167.698438 106.5845 
L 167.698438 48.472 
Q 167.698438 46.472 165.698438 46.472 
L 64.6 46.472 
Q 62.6 46.472 62.6 48.472 
L 62.6 106.5845 
Q 62.6 108.5845 64.6 108.5845 
z
" style="fill:#ffffff;opacity:0.8;stroke:#cccccc;stroke-linejoin:miter;"/>
    </g>
    <g id="line2d_43">
     <path d="M 66.6 54.570437 
L 86.6 54.570437 
" style="fill:none;stroke:#000000;stroke-dasharray:7.4,3.2;stroke-dashoffset:0;stroke-width:2;"/>
    </g>
    <g id="line2d_44"/>
    <g id="text_20">
     <!-- Glacier -->
     <defs>
      <path d="M 59.515625 10.40625 
L 59.515625 29.984375 
L 43.40625 29.984375 
L 43.40625 38.09375 
L 69.28125 38.09375 
L 69.28125 6.78125 
Q 63.578125 2.734375 56.6875 0.65625 
Q 49.8125 -1.421875 42 -1.421875 
Q 24.90625 -1.421875 15.25 8.5625 
Q 5.609375 18.5625 5.609375 36.375 
Q 5.609375 54.25 15.25 64.234375 
Q 24.90625 74.21875 42 74.21875 
Q 49.125 74.21875 55.546875 72.453125 
Q 61.96875 70.703125 67.390625 67.28125 
L 67.390625 56.78125 
Q 61.921875 61.421875 55.765625 63.765625 
Q 49.609375 66.109375 42.828125 66.109375 
Q 29.4375 66.109375 22.71875 58.640625 
Q 16.015625 51.171875 16.015625 36.375 
Q 16.015625 21.625 22.71875 14.15625 
Q 29.4375 6.6875 42.828125 6.6875 
Q 48.046875 6.6875 52.140625 7.59375 
Q 56.25 8.5 59.515625 10.40625 
z
" id="DejaVuSans-47"/>
     </defs>
     <g transform="translate(94.6 58.070437)scale(0.1 -0.1)">
      <use xlink:href="#DejaVuSans-47"/>
      <use x="77.490234" xlink:href="#DejaVuSans-6c"/>
      <use x="105.273438" xlink:href="#DejaVuSans-61"/>
      <use x="166.552734" xlink:href="#DejaVuSans-63"/>
      <use x="221.533203" xlink:href="#DejaVuSans-69"/>
      <use x="249.316406" xlink:href="#DejaVuSans-65"/>
      <use x="310.839844" xlink:href="#DejaVuSans-72"/>
     </g>
    </g>
    <g id="line2d_45">
     <path d="M 66.6 69.248562 
L 86.6 69.248562 
" style="fill:none;stroke:#000000;stroke-linecap:square;stroke-width:2;"/>
    </g>
    <g id="line2d_46"/>
    <g id="text_21">
     <!-- Ice Tooth -->
     <defs>
      <path d="M 9.8125 72.90625 
L 19.671875 72.90625 
L 19.671875 0 
L 9.8125 0 
z
" id="DejaVuSans-49"/>
      <path d="M -0.296875 72.90625 
L 61.375 72.90625 
L 61.375 64.59375 
L 35.5 64.59375 
L 35.5 0 
L 25.59375 0 
L 25.59375 64.59375 
L -0.296875 64.59375 
z
" id="DejaVuSans-54"/>
      <path d="M 30.609375 48.390625 
Q 23.390625 48.390625 19.1875 42.75 
Q 14.984375 37.109375 14.984375 27.296875 
Q 14.984375 17.484375 19.15625 11.84375 
Q 23.34375 6.203125 30.609375 6.203125 
Q 37.796875 6.203125 41.984375 11.859375 
Q 46.1875 17.53125 46.1875 27.296875 
Q 46.1875 37.015625 41.984375 42.703125 
Q 37.796875 48.390625 30.609375 48.390625 
z
M 30.609375 56 
Q 42.328125 56 49.015625 48.375 
Q 55.71875 40.765625 55.71875 27.296875 
Q 55.71875 13.875 49.015625 6.21875 
Q 42.328125 -1.421875 30.609375 -1.421875 
Q 18.84375 -1.421875 12.171875 6.21875 
Q 5.515625 13.875 5.515625 27.296875 
Q 5.515625 40.765625 12.171875 48.375 
Q 18.84375 56 30.609375 56 
z
" id="DejaVuSans-6f"/>
      <path d="M 54.890625 33.015625 
L 54.890625 0 
L 45.90625 0 
L 45.90625 32.71875 
Q 45.90625 40.484375 42.875 44.328125 
Q 39.84375 48.1875 33.796875 48.1875 
Q 26.515625 48.1875 22.3125 43.546875 
Q 18.109375 38.921875 18.109375 30.90625 
L 18.109375 0 
L 9.078125 0 
L 9.078125 75.984375 
L 18.109375 75.984375 
L 18.109375 46.1875 
Q 21.34375 51.125 25.703125 53.5625 
Q 30.078125 56 35.796875 56 
Q 45.21875 56 50.046875 50.171875 
Q 54.890625 44.34375 54.890625 33.015625 
z
" id="DejaVuSans-68"/>
     </defs>
     <g transform="translate(94.6 72.748562)scale(0.1 -0.1)">
      <use xlink:href="#DejaVuSans-49"/>
      <use x="29.492188" xlink:href="#DejaVuSans-63"/>
      <use x="84.472656" xlink:href="#DejaVuSans-65"/>
      <use x="145.996094" xlink:href="#DejaVuSans-20"/>
      <use x="177.783203" xlink:href="#DejaVuSans-54"/>
      <use x="238.601562" xlink:href="#DejaVuSans-6f"/>
      <use x="299.783203" xlink:href="#DejaVuSans-6f"/>
      <use x="360.964844" xlink:href="#DejaVuSans-74"/>
      <use x="400.173828" xlink:href="#DejaVuSans-68"/>
     </g>
    </g>
    <g id="line2d_47">
     <path d="M 66.6 83.926687 
L 86.6 83.926687 
" style="fill:none;stroke:#000000;stroke-dasharray:3.7,1.6;stroke-dashoffset:0;"/>
    </g>
    <g id="line2d_48"/>
    <g id="text_22">
     <!-- Calving Event -->
     <defs>
      <path d="M 64.40625 67.28125 
L 64.40625 56.890625 
Q 59.421875 61.53125 53.78125 63.8125 
Q 48.140625 66.109375 41.796875 66.109375 
Q 29.296875 66.109375 22.65625 58.46875 
Q 16.015625 50.828125 16.015625 36.375 
Q 16.015625 21.96875 22.65625 14.328125 
Q 29.296875 6.6875 41.796875 6.6875 
Q 48.140625 6.6875 53.78125 8.984375 
Q 59.421875 11.28125 64.40625 15.921875 
L 64.40625 5.609375 
Q 59.234375 2.09375 53.4375 0.328125 
Q 47.65625 -1.421875 41.21875 -1.421875 
Q 24.65625 -1.421875 15.125 8.703125 
Q 5.609375 18.84375 5.609375 36.375 
Q 5.609375 53.953125 15.125 64.078125 
Q 24.65625 74.21875 41.21875 74.21875 
Q 47.75 74.21875 53.53125 72.484375 
Q 59.328125 70.75 64.40625 67.28125 
z
" id="DejaVuSans-43"/>
      <path d="M 2.984375 54.6875 
L 12.5 54.6875 
L 29.59375 8.796875 
L 46.6875 54.6875 
L 56.203125 54.6875 
L 35.6875 0 
L 23.484375 0 
z
" id="DejaVuSans-76"/>
      <path d="M 45.40625 27.984375 
Q 45.40625 37.75 41.375 43.109375 
Q 37.359375 48.484375 30.078125 48.484375 
Q 22.859375 48.484375 18.828125 43.109375 
Q 14.796875 37.75 14.796875 27.984375 
Q 14.796875 18.265625 18.828125 12.890625 
Q 22.859375 7.515625 30.078125 7.515625 
Q 37.359375 7.515625 41.375 12.890625 
Q 45.40625 18.265625 45.40625 27.984375 
z
M 54.390625 6.78125 
Q 54.390625 -7.171875 48.1875 -13.984375 
Q 42 -20.796875 29.203125 -20.796875 
Q 24.46875 -20.796875 20.265625 -20.09375 
Q 16.0625 -19.390625 12.109375 -17.921875 
L 12.109375 -9.1875 
Q 16.0625 -11.328125 19.921875 -12.34375 
Q 23.78125 -13.375 27.78125 -13.375 
Q 36.625 -13.375 41.015625 -8.765625 
Q 45.40625 -4.15625 45.40625 5.171875 
L 45.40625 9.625 
Q 42.625 4.78125 38.28125 2.390625 
Q 33.9375 0 27.875 0 
Q 17.828125 0 11.671875 7.65625 
Q 5.515625 15.328125 5.515625 27.984375 
Q 5.515625 40.671875 11.671875 48.328125 
Q 17.828125 56 27.875 56 
Q 33.9375 56 38.28125 53.609375 
Q 42.625 51.21875 45.40625 46.390625 
L 45.40625 54.6875 
L 54.390625 54.6875 
z
" id="DejaVuSans-67"/>
      <path d="M 9.8125 72.90625 
L 55.90625 72.90625 
L 55.90625 64.59375 
L 19.671875 64.59375 
L 19.671875 43.015625 
L 54.390625 43.015625 
L 54.390625 34.71875 
L 19.671875 34.71875 
L 19.671875 8.296875 
L 56.78125 8.296875 
L 56.78125 0 
L 9.8125 0 
z
" id="DejaVuSans-45"/>
     </defs>
     <g transform="translate(94.6 87.426687)scale(0.1 -0.1)">
      <use xlink:href="#DejaVuSans-43"/>
      <use x="69.824219" xlink:href="#DejaVuSans-61"/>
      <use x="131.103516" xlink:href="#DejaVuSans-6c"/>
      <use x="158.886719" xlink:href="#DejaVuSans-76"/>
      <use x="218.066406" xlink:href="#DejaVuSans-69"/>
      <use x="245.849609" xlink:href="#DejaVuSans-6e"/>
      <use x="309.228516" xlink:href="#DejaVuSans-67"/>
      <use x="372.705078" xlink:href="#DejaVuSans-20"/>
      <use x="404.492188" xlink:href="#DejaVuSans-45"/>
      <use x="467.675781" xlink:href="#DejaVuSans-76"/>
      <use x="526.855469" xlink:href="#DejaVuSans-65"/>
      <use x="588.378906" xlink:href="#DejaVuSans-6e"/>
      <use x="651.757812" xlink:href="#DejaVuSans-74"/>
     </g>
    </g>
    <g id="patch_10">
     <path d="M 66.6 102.504812 
L 86.6 102.504812 
L 86.6 95.504812 
L 66.6 95.504812 
z
" style="fill:#808080;opacity:0.2;stroke:#808080;stroke-linejoin:miter;"/>
    </g>
    <g id="text_23">
     <!-- Mlange -->
     <defs>
      <path d="M 9.8125 72.90625 
L 24.515625 72.90625 
L 43.109375 23.296875 
L 61.8125 72.90625 
L 76.515625 72.90625 
L 76.515625 0 
L 66.890625 0 
L 66.890625 64.015625 
L 48.09375 14.015625 
L 38.1875 14.015625 
L 19.390625 64.015625 
L 19.390625 0 
L 9.8125 0 
z
" id="DejaVuSans-4d"/>
      <path d="M 56.203125 29.59375 
L 56.203125 25.203125 
L 14.890625 25.203125 
Q 15.484375 15.921875 20.484375 11.0625 
Q 25.484375 6.203125 34.421875 6.203125 
Q 39.59375 6.203125 44.453125 7.46875 
Q 49.3125 8.734375 54.109375 11.28125 
L 54.109375 2.78125 
Q 49.265625 0.734375 44.1875 -0.34375 
Q 39.109375 -1.421875 33.890625 -1.421875 
Q 20.796875 -1.421875 13.15625 6.1875 
Q 5.515625 13.8125 5.515625 26.8125 
Q 5.515625 40.234375 12.765625 48.109375 
Q 20.015625 56 32.328125 56 
Q 43.359375 56 49.78125 48.890625 
Q 56.203125 41.796875 56.203125 29.59375 
z
M 47.21875 32.234375 
Q 47.125 39.59375 43.09375 43.984375 
Q 39.0625 48.390625 32.421875 48.390625 
Q 24.90625 48.390625 20.390625 44.140625 
Q 15.875 39.890625 15.1875 32.171875 
z
M 38.578125 79.984375 
L 48.296875 79.984375 
L 32.375 61.625 
L 24.90625 61.625 
z
" id="DejaVuSans-e9"/>
     </defs>
     <g transform="translate(94.6 102.504812)scale(0.1 -0.1)">
      <use xlink:href="#DejaVuSans-4d"/>
      <use x="86.279297" xlink:href="#DejaVuSans-e9"/>
      <use x="147.802734" xlink:href="#DejaVuSans-6c"/>
      <use x="175.585938" xlink:href="#DejaVuSans-61"/>
      <use x="236.865234" xlink:href="#DejaVuSans-6e"/>
      <use x="300.244141" xlink:href="#DejaVuSans-67"/>
      <use x="363.720703" xlink:href="#DejaVuSans-65"/>
     </g>
    </g>
   </g>
  </g>
 </g>
 <defs>
  <clipPath id="p020e728336">
   <rect height="235.008" width="357.12" x="57.6" y="41.472"/>
  </clipPath>
 </defs>
</svg>
